<mxfile host="app.diagrams.net" modified="2024-05-15T10:11:05.217Z" agent="Mozilla/5.0 (Windows NT 10.0; Win64; x64) AppleWebKit/537.36 (KHTML, like Gecko) Chrome/122.0.0.0 YaBrowser/24.4.0.0 Safari/537.36" etag="tcLPaJ9DbO-SZuKVxeQU" version="24.4.0" type="device">
  <diagram name="Страница — 1" id="874Sd5kRbdWOR1WMlRuU">
    <mxGraphModel dx="2656" dy="1736" grid="1" gridSize="10" guides="1" tooltips="1" connect="1" arrows="1" fold="1" page="1" pageScale="1" pageWidth="827" pageHeight="1169" math="0" shadow="0">
      <root>
        <mxCell id="0" />
        <mxCell id="1" parent="0" />
        <mxCell id="0UiTAvG5i1j57kaQnPV8-194" value="" style="html=1;dashed=0;whiteSpace=wrap;" parent="1" vertex="1">
          <mxGeometry x="-1470" y="6420" width="1320" height="1200" as="geometry" />
        </mxCell>
        <mxCell id="0UiTAvG5i1j57kaQnPV8-60" value="Запись" style="shape=mxgraph.sysml.compState;html=1;align=left;verticalAlign=top;spacingTop=-3;spacingLeft=18;" parent="1" vertex="1">
          <mxGeometry x="-1245" y="4300" width="1120" height="530" as="geometry" />
        </mxCell>
        <mxCell id="0UiTAvG5i1j57kaQnPV8-46" value="Регистрация" style="shape=folder;align=left;verticalAlign=middle;fontStyle=0;tabWidth=150;tabHeight=30;tabPosition=left;html=1;boundedLbl=1;labelInHeader=1;rounded=1;absoluteArcSize=1;arcSize=10;whiteSpace=wrap;" parent="1" vertex="1">
          <mxGeometry x="-975" y="3480" width="470" height="640" as="geometry" />
        </mxCell>
        <mxCell id="DHmZTs1CuRAezg29g5oL-94" value="" style="rounded=0;whiteSpace=wrap;html=1;" parent="1" vertex="1">
          <mxGeometry x="-1600" y="1640" width="2240" height="1360" as="geometry" />
        </mxCell>
        <mxCell id="wh4o8MqgVzbJGgZmjvEK-242" value="" style="rounded=0;whiteSpace=wrap;html=1;" parent="1" vertex="1">
          <mxGeometry x="-1600" y="880" width="750" height="720" as="geometry" />
        </mxCell>
        <mxCell id="wh4o8MqgVzbJGgZmjvEK-212" value="" style="rounded=0;whiteSpace=wrap;html=1;" parent="1" vertex="1">
          <mxGeometry x="-1600" y="160" width="840" height="680" as="geometry" />
        </mxCell>
        <mxCell id="wh4o8MqgVzbJGgZmjvEK-141" value="" style="rounded=0;whiteSpace=wrap;html=1;" parent="1" vertex="1">
          <mxGeometry x="-1600" y="-1120" width="1280" height="1240" as="geometry" />
        </mxCell>
        <mxCell id="wh4o8MqgVzbJGgZmjvEK-1" value="Пациент&lt;div&gt;&lt;br&gt;&lt;/div&gt;" style="shape=umlActor;verticalLabelPosition=bottom;verticalAlign=top;html=1;outlineConnect=0;" parent="1" vertex="1">
          <mxGeometry x="-1560" y="-730" width="30" height="60" as="geometry" />
        </mxCell>
        <mxCell id="wh4o8MqgVzbJGgZmjvEK-10" value="Запись на прием" style="ellipse;whiteSpace=wrap;html=1;" parent="1" vertex="1">
          <mxGeometry x="-1380" y="-740" width="120" height="80" as="geometry" />
        </mxCell>
        <mxCell id="wh4o8MqgVzbJGgZmjvEK-11" value="Подготовка медицинских документов" style="ellipse;whiteSpace=wrap;html=1;" parent="1" vertex="1">
          <mxGeometry x="-1380" y="-860" width="120" height="80" as="geometry" />
        </mxCell>
        <mxCell id="wh4o8MqgVzbJGgZmjvEK-12" value="Медицинская карта&lt;br&gt;Результаты обследований&lt;div&gt;ПОЛИС ОМС&lt;/div&gt;" style="shape=note;whiteSpace=wrap;html=1;backgroundOutline=1;darkOpacity=0.05;fillColor=#fff2cc;strokeColor=#d6b656;" parent="1" vertex="1">
          <mxGeometry x="-1570" y="-990" width="150" height="100" as="geometry" />
        </mxCell>
        <mxCell id="wh4o8MqgVzbJGgZmjvEK-13" value="Подпись согласия&lt;div&gt;&lt;span style=&quot;background-color: initial;&quot;&gt;на медицинское обслуживание&lt;/span&gt;&lt;/div&gt;" style="ellipse;whiteSpace=wrap;html=1;" parent="1" vertex="1">
          <mxGeometry x="-1180" y="-860" width="120" height="80" as="geometry" />
        </mxCell>
        <mxCell id="wh4o8MqgVzbJGgZmjvEK-14" value="Запрос&lt;div&gt;необходимых справок&lt;span style=&quot;background-color: initial;&quot;&gt;&amp;nbsp;и&lt;/span&gt;&lt;div&gt;&lt;span style=&quot;background-color: initial;&quot;&gt;рецептов&lt;/span&gt;&lt;/div&gt;&lt;/div&gt;" style="ellipse;whiteSpace=wrap;html=1;" parent="1" vertex="1">
          <mxGeometry x="-1380" y="-620" width="120" height="80" as="geometry" />
        </mxCell>
        <mxCell id="wh4o8MqgVzbJGgZmjvEK-15" value="Просмотр расписания&lt;div&gt;приемов&lt;/div&gt;" style="ellipse;whiteSpace=wrap;html=1;" parent="1" vertex="1">
          <mxGeometry x="-1380" y="-290" width="120" height="80" as="geometry" />
        </mxCell>
        <mxCell id="wh4o8MqgVzbJGgZmjvEK-23" value="Формирование расписания&lt;div&gt;приемов&lt;/div&gt;" style="ellipse;whiteSpace=wrap;html=1;" parent="1" vertex="1">
          <mxGeometry x="-660" y="-940" width="120" height="80" as="geometry" />
        </mxCell>
        <mxCell id="wh4o8MqgVzbJGgZmjvEK-24" value="Регистрация новых пациентов" style="ellipse;whiteSpace=wrap;html=1;" parent="1" vertex="1">
          <mxGeometry x="-820" y="-940" width="120" height="80" as="geometry" />
        </mxCell>
        <mxCell id="wh4o8MqgVzbJGgZmjvEK-25" value="Выдача&lt;div&gt;&lt;span style=&quot;background-color: initial;&quot;&gt;согласия на медицинское обслуживание&lt;/span&gt;&lt;/div&gt;" style="ellipse;whiteSpace=wrap;html=1;" parent="1" vertex="1">
          <mxGeometry x="-980" y="-940" width="120" height="80" as="geometry" />
        </mxCell>
        <mxCell id="wh4o8MqgVzbJGgZmjvEK-26" value="Формирование отчета об&amp;nbsp;&lt;span style=&quot;background-color: initial;&quot;&gt;оказанных медицинских&lt;/span&gt;&lt;div&gt;&lt;div&gt;&lt;span style=&quot;background-color: initial;&quot;&gt;услугах&lt;/span&gt;&lt;/div&gt;&lt;/div&gt;" style="ellipse;whiteSpace=wrap;html=1;" parent="1" vertex="1">
          <mxGeometry x="-500" y="-940" width="120" height="80" as="geometry" />
        </mxCell>
        <mxCell id="wh4o8MqgVzbJGgZmjvEK-28" value="Внесение пациента в реестр" style="ellipse;whiteSpace=wrap;html=1;" parent="1" vertex="1">
          <mxGeometry x="-980" y="-740" width="120" height="80" as="geometry" />
        </mxCell>
        <mxCell id="wh4o8MqgVzbJGgZmjvEK-30" value="Управление расписанием" style="ellipse;whiteSpace=wrap;html=1;" parent="1" vertex="1">
          <mxGeometry x="-660" y="-540" width="120" height="80" as="geometry" />
        </mxCell>
        <mxCell id="wh4o8MqgVzbJGgZmjvEK-31" value="Хранение медицинских&lt;div&gt;данных пациента&lt;/div&gt;" style="ellipse;whiteSpace=wrap;html=1;" parent="1" vertex="1">
          <mxGeometry x="-820" y="-230" width="120" height="80" as="geometry" />
        </mxCell>
        <mxCell id="wh4o8MqgVzbJGgZmjvEK-32" value="Хранение&amp;nbsp;&lt;div&gt;отчетов&amp;nbsp;&lt;span style=&quot;background-color: initial;&quot;&gt;об оказанных медицинских&lt;/span&gt;&lt;div&gt;услугах&lt;/div&gt;&lt;/div&gt;" style="ellipse;whiteSpace=wrap;html=1;" parent="1" vertex="1">
          <mxGeometry x="-500" y="-540" width="120" height="80" as="geometry" />
        </mxCell>
        <mxCell id="wh4o8MqgVzbJGgZmjvEK-34" value="Выдача рецепта и справок" style="ellipse;whiteSpace=wrap;html=1;" parent="1" vertex="1">
          <mxGeometry x="-1380" y="-410" width="120" height="80" as="geometry" />
        </mxCell>
        <mxCell id="wh4o8MqgVzbJGgZmjvEK-35" value="Составление заключения и рекомендаций" style="ellipse;whiteSpace=wrap;html=1;" parent="1" vertex="1">
          <mxGeometry x="-1380" y="-170" width="120" height="80" as="geometry" />
        </mxCell>
        <mxCell id="wh4o8MqgVzbJGgZmjvEK-40" value="" style="endArrow=none;html=1;rounded=0;" parent="1" source="wh4o8MqgVzbJGgZmjvEK-1" target="wh4o8MqgVzbJGgZmjvEK-14" edge="1">
          <mxGeometry width="50" height="50" relative="1" as="geometry">
            <mxPoint x="-1370" y="-550" as="sourcePoint" />
            <mxPoint x="-1320" y="-600" as="targetPoint" />
          </mxGeometry>
        </mxCell>
        <mxCell id="wh4o8MqgVzbJGgZmjvEK-45" value="&quot;include&quot;" style="html=1;verticalAlign=bottom;endArrow=classic;curved=0;rounded=0;dashed=1;endFill=1;" parent="1" source="wh4o8MqgVzbJGgZmjvEK-11" target="wh4o8MqgVzbJGgZmjvEK-13" edge="1">
          <mxGeometry width="80" relative="1" as="geometry">
            <mxPoint x="-1150" y="-470" as="sourcePoint" />
            <mxPoint x="-1070" y="-470" as="targetPoint" />
            <mxPoint as="offset" />
          </mxGeometry>
        </mxCell>
        <mxCell id="wh4o8MqgVzbJGgZmjvEK-46" value="" style="endArrow=none;html=1;rounded=0;dashed=1;" parent="1" source="wh4o8MqgVzbJGgZmjvEK-12" target="wh4o8MqgVzbJGgZmjvEK-11" edge="1">
          <mxGeometry width="50" height="50" relative="1" as="geometry">
            <mxPoint x="-1520" y="-657" as="sourcePoint" />
            <mxPoint x="-1338" y="-746" as="targetPoint" />
          </mxGeometry>
        </mxCell>
        <mxCell id="wh4o8MqgVzbJGgZmjvEK-2" value="&lt;font style=&quot;background-color: rgb(255, 255, 255);&quot;&gt;Стоматолог&lt;/font&gt;&lt;div&gt;&lt;br&gt;&lt;/div&gt;" style="shape=umlActor;verticalLabelPosition=bottom;verticalAlign=top;html=1;outlineConnect=0;" parent="1" vertex="1">
          <mxGeometry x="-1560" y="-220" width="30" height="60" as="geometry" />
        </mxCell>
        <mxCell id="wh4o8MqgVzbJGgZmjvEK-70" value="Оказание медицинских услуг" style="ellipse;whiteSpace=wrap;html=1;flipH=0;flipV=0;" parent="1" vertex="1">
          <mxGeometry x="-1380" y="-50" width="120" height="80" as="geometry" />
        </mxCell>
        <mxCell id="wh4o8MqgVzbJGgZmjvEK-71" value="Проведение&lt;div&gt;осмотра и диагностики&lt;/div&gt;" style="ellipse;whiteSpace=wrap;html=1;flipH=0;flipV=0;" parent="1" vertex="1">
          <mxGeometry x="-1220" y="10" width="120" height="80" as="geometry" />
        </mxCell>
        <mxCell id="wh4o8MqgVzbJGgZmjvEK-72" value="Проведение&lt;div&gt;лечения&lt;/div&gt;" style="ellipse;whiteSpace=wrap;html=1;" parent="1" vertex="1">
          <mxGeometry x="-1220" y="-110" width="120" height="80" as="geometry" />
        </mxCell>
        <mxCell id="wh4o8MqgVzbJGgZmjvEK-73" value="Запись результатов осмотра" style="ellipse;whiteSpace=wrap;html=1;flipH=0;flipV=0;" parent="1" vertex="1">
          <mxGeometry x="-1020" y="10" width="120" height="80" as="geometry" />
        </mxCell>
        <mxCell id="wh4o8MqgVzbJGgZmjvEK-74" value="Планирование лечения" style="ellipse;whiteSpace=wrap;html=1;flipH=0;flipV=0;" parent="1" vertex="1">
          <mxGeometry x="-820" y="10" width="120" height="80" as="geometry" />
        </mxCell>
        <mxCell id="wh4o8MqgVzbJGgZmjvEK-77" value="Запись результатов лечения" style="ellipse;whiteSpace=wrap;html=1;" parent="1" vertex="1">
          <mxGeometry x="-1020" y="-110" width="120" height="80" as="geometry" />
        </mxCell>
        <mxCell id="wh4o8MqgVzbJGgZmjvEK-78" value="Внесение&lt;div&gt;данных в медицинскую историю&lt;/div&gt;" style="ellipse;whiteSpace=wrap;html=1;" parent="1" vertex="1">
          <mxGeometry x="-820" y="-110" width="120" height="80" as="geometry" />
        </mxCell>
        <mxCell id="wh4o8MqgVzbJGgZmjvEK-82" value="Заполнение регистрационной формы&amp;nbsp;" style="ellipse;whiteSpace=wrap;html=1;" parent="1" vertex="1">
          <mxGeometry x="-1180" y="-740" width="120" height="80" as="geometry" />
        </mxCell>
        <mxCell id="wh4o8MqgVzbJGgZmjvEK-89" value="" style="endArrow=none;html=1;rounded=0;" parent="1" source="wh4o8MqgVzbJGgZmjvEK-1" target="wh4o8MqgVzbJGgZmjvEK-10" edge="1">
          <mxGeometry width="50" height="50" relative="1" as="geometry">
            <mxPoint x="-1520" y="-682" as="sourcePoint" />
            <mxPoint x="-1357" y="-595" as="targetPoint" />
          </mxGeometry>
        </mxCell>
        <mxCell id="wh4o8MqgVzbJGgZmjvEK-90" value="" style="endArrow=none;html=1;rounded=0;" parent="1" source="wh4o8MqgVzbJGgZmjvEK-1" target="wh4o8MqgVzbJGgZmjvEK-11" edge="1">
          <mxGeometry width="50" height="50" relative="1" as="geometry">
            <mxPoint x="-1520" y="-690" as="sourcePoint" />
            <mxPoint x="-1370" y="-690" as="targetPoint" />
          </mxGeometry>
        </mxCell>
        <mxCell id="wh4o8MqgVzbJGgZmjvEK-92" value="&quot;include&quot;" style="html=1;verticalAlign=bottom;endArrow=classic;curved=0;rounded=0;dashed=1;endFill=1;" parent="1" source="wh4o8MqgVzbJGgZmjvEK-25" target="wh4o8MqgVzbJGgZmjvEK-13" edge="1">
          <mxGeometry width="80" relative="1" as="geometry">
            <mxPoint x="-1250" y="-810" as="sourcePoint" />
            <mxPoint x="-1170" y="-810" as="targetPoint" />
            <mxPoint as="offset" />
          </mxGeometry>
        </mxCell>
        <mxCell id="wh4o8MqgVzbJGgZmjvEK-93" value="" style="endArrow=none;html=1;rounded=0;" parent="1" source="wh4o8MqgVzbJGgZmjvEK-25" target="wh4o8MqgVzbJGgZmjvEK-3" edge="1">
          <mxGeometry width="50" height="50" relative="1" as="geometry">
            <mxPoint x="-900" y="-993" as="sourcePoint" />
            <mxPoint x="-737" y="-1080" as="targetPoint" />
          </mxGeometry>
        </mxCell>
        <mxCell id="wh4o8MqgVzbJGgZmjvEK-94" value="" style="endArrow=none;html=1;rounded=0;" parent="1" source="wh4o8MqgVzbJGgZmjvEK-24" target="wh4o8MqgVzbJGgZmjvEK-3" edge="1">
          <mxGeometry width="50" height="50" relative="1" as="geometry">
            <mxPoint x="-869" y="-919" as="sourcePoint" />
            <mxPoint x="-690" y="-1049" as="targetPoint" />
          </mxGeometry>
        </mxCell>
        <mxCell id="wh4o8MqgVzbJGgZmjvEK-100" value="&quot;include&quot;" style="html=1;verticalAlign=bottom;endArrow=classic;curved=0;rounded=0;dashed=1;endFill=1;" parent="1" source="wh4o8MqgVzbJGgZmjvEK-24" target="wh4o8MqgVzbJGgZmjvEK-82" edge="1">
          <mxGeometry width="80" relative="1" as="geometry">
            <mxPoint x="-1060" y="-621.05" as="sourcePoint" />
            <mxPoint x="-980" y="-621.05" as="targetPoint" />
            <mxPoint as="offset" />
          </mxGeometry>
        </mxCell>
        <mxCell id="wh4o8MqgVzbJGgZmjvEK-101" value="&quot;include&quot;" style="html=1;verticalAlign=bottom;endArrow=classic;curved=0;rounded=0;dashed=1;endFill=1;" parent="1" source="wh4o8MqgVzbJGgZmjvEK-24" target="wh4o8MqgVzbJGgZmjvEK-28" edge="1">
          <mxGeometry width="80" relative="1" as="geometry">
            <mxPoint x="-796" y="-864" as="sourcePoint" />
            <mxPoint x="-1064" y="-716" as="targetPoint" />
            <mxPoint as="offset" />
          </mxGeometry>
        </mxCell>
        <mxCell id="wh4o8MqgVzbJGgZmjvEK-104" value="Внесение&lt;div&gt;отчета об&amp;nbsp;&lt;span style=&quot;background-color: initial;&quot;&gt;оказанных медицинских&lt;/span&gt;&lt;div&gt;&lt;div&gt;&lt;span style=&quot;background-color: initial;&quot;&gt;услугах&lt;/span&gt;&lt;/div&gt;&lt;/div&gt;&lt;/div&gt;" style="ellipse;whiteSpace=wrap;html=1;" parent="1" vertex="1">
          <mxGeometry x="-500" y="-740" width="120" height="80" as="geometry" />
        </mxCell>
        <mxCell id="wh4o8MqgVzbJGgZmjvEK-105" value="Оформление пациента" style="ellipse;whiteSpace=wrap;html=1;" parent="1" vertex="1">
          <mxGeometry x="-660" y="-740" width="120" height="80" as="geometry" />
        </mxCell>
        <mxCell id="wh4o8MqgVzbJGgZmjvEK-106" value="" style="endArrow=none;html=1;rounded=0;" parent="1" source="wh4o8MqgVzbJGgZmjvEK-23" target="wh4o8MqgVzbJGgZmjvEK-3" edge="1">
          <mxGeometry width="50" height="50" relative="1" as="geometry">
            <mxPoint x="-733" y="-928" as="sourcePoint" />
            <mxPoint x="-688" y="-1030" as="targetPoint" />
          </mxGeometry>
        </mxCell>
        <mxCell id="wh4o8MqgVzbJGgZmjvEK-107" value="&quot;include&quot;" style="html=1;verticalAlign=bottom;endArrow=classic;curved=0;rounded=0;dashed=1;endFill=1;" parent="1" source="wh4o8MqgVzbJGgZmjvEK-23" target="wh4o8MqgVzbJGgZmjvEK-105" edge="1">
          <mxGeometry width="80" relative="1" as="geometry">
            <mxPoint x="-778" y="-855" as="sourcePoint" />
            <mxPoint x="-882" y="-725" as="targetPoint" />
            <mxPoint as="offset" />
          </mxGeometry>
        </mxCell>
        <mxCell id="wh4o8MqgVzbJGgZmjvEK-113" value="" style="endArrow=none;html=1;rounded=0;" parent="1" source="wh4o8MqgVzbJGgZmjvEK-26" target="wh4o8MqgVzbJGgZmjvEK-3" edge="1">
          <mxGeometry width="50" height="50" relative="1" as="geometry">
            <mxPoint x="-609" y="-928" as="sourcePoint" />
            <mxPoint x="-660" y="-1030" as="targetPoint" />
          </mxGeometry>
        </mxCell>
        <mxCell id="wh4o8MqgVzbJGgZmjvEK-3" value="&lt;span style=&quot;background-color: rgb(255, 255, 255);&quot;&gt;Администратор&lt;/span&gt;" style="shape=umlActor;verticalLabelPosition=bottom;verticalAlign=top;html=1;outlineConnect=0;" parent="1" vertex="1">
          <mxGeometry x="-700" y="-1100" width="30" height="60" as="geometry" />
        </mxCell>
        <mxCell id="wh4o8MqgVzbJGgZmjvEK-115" value="&quot;include&quot;" style="html=1;verticalAlign=bottom;endArrow=classic;curved=0;rounded=0;dashed=1;endFill=1;" parent="1" source="wh4o8MqgVzbJGgZmjvEK-26" target="wh4o8MqgVzbJGgZmjvEK-104" edge="1">
          <mxGeometry width="80" relative="1" as="geometry">
            <mxPoint x="-480" y="-840" as="sourcePoint" />
            <mxPoint x="-480" y="-720" as="targetPoint" />
            <mxPoint as="offset" />
          </mxGeometry>
        </mxCell>
        <mxCell id="wh4o8MqgVzbJGgZmjvEK-116" value="" style="endArrow=none;html=1;rounded=0;" parent="1" source="wh4o8MqgVzbJGgZmjvEK-2" target="wh4o8MqgVzbJGgZmjvEK-34" edge="1">
          <mxGeometry width="50" height="50" relative="1" as="geometry">
            <mxPoint x="-1567.5" y="-274" as="sourcePoint" />
            <mxPoint x="-1522.5" y="-376" as="targetPoint" />
          </mxGeometry>
        </mxCell>
        <mxCell id="wh4o8MqgVzbJGgZmjvEK-117" value="Управление реестром" style="ellipse;whiteSpace=wrap;html=1;" parent="1" vertex="1">
          <mxGeometry x="-1180" y="-620" width="120" height="80" as="geometry" />
        </mxCell>
        <mxCell id="wh4o8MqgVzbJGgZmjvEK-118" value="" style="endArrow=none;html=1;rounded=0;" parent="1" source="wh4o8MqgVzbJGgZmjvEK-2" target="wh4o8MqgVzbJGgZmjvEK-15" edge="1">
          <mxGeometry width="50" height="50" relative="1" as="geometry">
            <mxPoint x="-1520" y="-192" as="sourcePoint" />
            <mxPoint x="-1349" y="-329" as="targetPoint" />
          </mxGeometry>
        </mxCell>
        <mxCell id="wh4o8MqgVzbJGgZmjvEK-119" value="" style="endArrow=none;html=1;rounded=0;" parent="1" source="wh4o8MqgVzbJGgZmjvEK-2" target="wh4o8MqgVzbJGgZmjvEK-35" edge="1">
          <mxGeometry width="50" height="50" relative="1" as="geometry">
            <mxPoint x="-1510" y="-182" as="sourcePoint" />
            <mxPoint x="-1339" y="-319" as="targetPoint" />
          </mxGeometry>
        </mxCell>
        <mxCell id="wh4o8MqgVzbJGgZmjvEK-120" value="" style="endArrow=none;html=1;rounded=0;" parent="1" source="wh4o8MqgVzbJGgZmjvEK-2" target="wh4o8MqgVzbJGgZmjvEK-70" edge="1">
          <mxGeometry width="50" height="50" relative="1" as="geometry">
            <mxPoint x="-1500" y="-172" as="sourcePoint" />
            <mxPoint x="-1329" y="-309" as="targetPoint" />
          </mxGeometry>
        </mxCell>
        <mxCell id="wh4o8MqgVzbJGgZmjvEK-121" value="&quot;include&quot;" style="html=1;verticalAlign=bottom;endArrow=classic;curved=0;rounded=0;dashed=1;endFill=1;" parent="1" source="wh4o8MqgVzbJGgZmjvEK-14" target="wh4o8MqgVzbJGgZmjvEK-34" edge="1">
          <mxGeometry width="80" relative="1" as="geometry">
            <mxPoint x="-1250" y="-690" as="sourcePoint" />
            <mxPoint x="-1170" y="-690" as="targetPoint" />
            <mxPoint as="offset" />
          </mxGeometry>
        </mxCell>
        <mxCell id="wh4o8MqgVzbJGgZmjvEK-122" value="&quot;include&quot;" style="html=1;verticalAlign=bottom;endArrow=classic;curved=0;rounded=0;dashed=1;endFill=1;" parent="1" source="wh4o8MqgVzbJGgZmjvEK-70" target="wh4o8MqgVzbJGgZmjvEK-72" edge="1">
          <mxGeometry width="80" relative="1" as="geometry">
            <mxPoint x="-1310" y="-530" as="sourcePoint" />
            <mxPoint x="-1180" y="-150" as="targetPoint" />
            <mxPoint as="offset" />
          </mxGeometry>
        </mxCell>
        <mxCell id="wh4o8MqgVzbJGgZmjvEK-123" value="&quot;include&quot;" style="html=1;verticalAlign=bottom;endArrow=classic;curved=0;rounded=0;dashed=1;endFill=1;" parent="1" source="wh4o8MqgVzbJGgZmjvEK-70" target="wh4o8MqgVzbJGgZmjvEK-71" edge="1">
          <mxGeometry width="80" relative="1" as="geometry">
            <mxPoint x="-1258" y="-20" as="sourcePoint" />
            <mxPoint x="-1202" y="-40" as="targetPoint" />
            <mxPoint as="offset" />
          </mxGeometry>
        </mxCell>
        <mxCell id="wh4o8MqgVzbJGgZmjvEK-124" value="&quot;include&quot;" style="html=1;verticalAlign=bottom;endArrow=classic;curved=0;rounded=0;dashed=1;endFill=1;" parent="1" source="wh4o8MqgVzbJGgZmjvEK-71" target="wh4o8MqgVzbJGgZmjvEK-73" edge="1">
          <mxGeometry width="80" relative="1" as="geometry">
            <mxPoint x="-1320" y="60" as="sourcePoint" />
            <mxPoint x="-1202" y="40" as="targetPoint" />
            <mxPoint as="offset" />
          </mxGeometry>
        </mxCell>
        <mxCell id="wh4o8MqgVzbJGgZmjvEK-125" value="&quot;include&quot;" style="html=1;verticalAlign=bottom;endArrow=classic;curved=0;rounded=0;dashed=1;endFill=1;" parent="1" source="wh4o8MqgVzbJGgZmjvEK-72" target="wh4o8MqgVzbJGgZmjvEK-77" edge="1">
          <mxGeometry width="80" relative="1" as="geometry">
            <mxPoint x="-1090" y="60" as="sourcePoint" />
            <mxPoint x="-1010" y="60" as="targetPoint" />
            <mxPoint as="offset" />
          </mxGeometry>
        </mxCell>
        <mxCell id="wh4o8MqgVzbJGgZmjvEK-126" value="&quot;include&quot;" style="html=1;verticalAlign=bottom;endArrow=classic;curved=0;rounded=0;dashed=1;endFill=1;" parent="1" source="wh4o8MqgVzbJGgZmjvEK-73" target="wh4o8MqgVzbJGgZmjvEK-74" edge="1">
          <mxGeometry width="80" relative="1" as="geometry">
            <mxPoint x="-890" y="100" as="sourcePoint" />
            <mxPoint x="-810" y="100" as="targetPoint" />
            <mxPoint as="offset" />
          </mxGeometry>
        </mxCell>
        <mxCell id="wh4o8MqgVzbJGgZmjvEK-127" value="&quot;include&quot;" style="html=1;verticalAlign=bottom;endArrow=classic;curved=0;rounded=0;dashed=1;endFill=1;" parent="1" source="wh4o8MqgVzbJGgZmjvEK-73" target="wh4o8MqgVzbJGgZmjvEK-78" edge="1">
          <mxGeometry width="80" relative="1" as="geometry">
            <mxPoint x="-890" y="60" as="sourcePoint" />
            <mxPoint x="-810" y="60" as="targetPoint" />
            <mxPoint as="offset" />
          </mxGeometry>
        </mxCell>
        <mxCell id="wh4o8MqgVzbJGgZmjvEK-128" value="&quot;include&quot;" style="html=1;verticalAlign=bottom;endArrow=classic;curved=0;rounded=0;dashed=1;endFill=1;" parent="1" source="wh4o8MqgVzbJGgZmjvEK-77" target="wh4o8MqgVzbJGgZmjvEK-78" edge="1">
          <mxGeometry width="80" relative="1" as="geometry">
            <mxPoint x="-905" y="33" as="sourcePoint" />
            <mxPoint x="-795" y="-33" as="targetPoint" />
            <mxPoint as="offset" />
          </mxGeometry>
        </mxCell>
        <mxCell id="wh4o8MqgVzbJGgZmjvEK-130" value="&quot;include&quot;" style="html=1;verticalAlign=bottom;endArrow=classic;curved=0;rounded=0;dashed=1;endFill=1;" parent="1" source="wh4o8MqgVzbJGgZmjvEK-117" target="wh4o8MqgVzbJGgZmjvEK-28" edge="1">
          <mxGeometry width="80" relative="1" as="geometry">
            <mxPoint x="-899.9950484651304" y="-620.0011807546805" as="sourcePoint" />
            <mxPoint x="-1010.6923512251687" y="-553.4385892648986" as="targetPoint" />
            <mxPoint as="offset" />
          </mxGeometry>
        </mxCell>
        <mxCell id="wh4o8MqgVzbJGgZmjvEK-132" value="" style="endArrow=none;html=1;rounded=0;" parent="1" source="wh4o8MqgVzbJGgZmjvEK-4" target="wh4o8MqgVzbJGgZmjvEK-30" edge="1">
          <mxGeometry width="50" height="50" relative="1" as="geometry">
            <mxPoint x="-920" y="-390" as="sourcePoint" />
            <mxPoint x="-870" y="-440" as="targetPoint" />
          </mxGeometry>
        </mxCell>
        <mxCell id="wh4o8MqgVzbJGgZmjvEK-133" value="" style="endArrow=none;html=1;rounded=0;exitX=0.5;exitY=0.5;exitDx=0;exitDy=0;exitPerimeter=0;" parent="1" source="wh4o8MqgVzbJGgZmjvEK-4" target="wh4o8MqgVzbJGgZmjvEK-32" edge="1">
          <mxGeometry width="50" height="50" relative="1" as="geometry">
            <mxPoint x="-750" y="-420" as="sourcePoint" />
            <mxPoint x="-750" y="-530" as="targetPoint" />
          </mxGeometry>
        </mxCell>
        <mxCell id="wh4o8MqgVzbJGgZmjvEK-134" value="" style="endArrow=none;html=1;rounded=0;" parent="1" source="wh4o8MqgVzbJGgZmjvEK-4" target="wh4o8MqgVzbJGgZmjvEK-31" edge="1">
          <mxGeometry width="50" height="50" relative="1" as="geometry">
            <mxPoint x="-750" y="-390" as="sourcePoint" />
            <mxPoint x="-484" y="-473" as="targetPoint" />
          </mxGeometry>
        </mxCell>
        <mxCell id="wh4o8MqgVzbJGgZmjvEK-135" value="" style="endArrow=none;html=1;rounded=0;" parent="1" source="wh4o8MqgVzbJGgZmjvEK-4" target="wh4o8MqgVzbJGgZmjvEK-117" edge="1">
          <mxGeometry width="50" height="50" relative="1" as="geometry">
            <mxPoint x="-750" y="-390" as="sourcePoint" />
            <mxPoint x="-484" y="-473" as="targetPoint" />
          </mxGeometry>
        </mxCell>
        <mxCell id="wh4o8MqgVzbJGgZmjvEK-136" value="&quot;include&quot;" style="html=1;verticalAlign=bottom;endArrow=classic;curved=0;rounded=0;dashed=1;endFill=1;" parent="1" source="wh4o8MqgVzbJGgZmjvEK-30" target="wh4o8MqgVzbJGgZmjvEK-105" edge="1">
          <mxGeometry width="80" relative="1" as="geometry">
            <mxPoint x="-590" y="-850" as="sourcePoint" />
            <mxPoint x="-590" y="-730" as="targetPoint" />
            <mxPoint as="offset" />
          </mxGeometry>
        </mxCell>
        <mxCell id="wh4o8MqgVzbJGgZmjvEK-137" value="&quot;include&quot;" style="html=1;verticalAlign=bottom;endArrow=classic;curved=0;rounded=0;dashed=1;endFill=1;" parent="1" source="wh4o8MqgVzbJGgZmjvEK-104" target="wh4o8MqgVzbJGgZmjvEK-32" edge="1">
          <mxGeometry width="80" relative="1" as="geometry">
            <mxPoint x="-300" y="-630" as="sourcePoint" />
            <mxPoint x="-370" y="-610" as="targetPoint" />
            <mxPoint as="offset" />
          </mxGeometry>
        </mxCell>
        <mxCell id="wh4o8MqgVzbJGgZmjvEK-4" value="Информационная&lt;div&gt;система&lt;/div&gt;" style="shape=umlActor;verticalLabelPosition=bottom;verticalAlign=top;html=1;outlineConnect=0;" parent="1" vertex="1">
          <mxGeometry x="-455" y="-220" width="30" height="60" as="geometry" />
        </mxCell>
        <mxCell id="wh4o8MqgVzbJGgZmjvEK-139" value="&quot;include&quot;" style="html=1;verticalAlign=bottom;endArrow=classic;curved=0;rounded=0;dashed=1;endFill=1;" parent="1" source="wh4o8MqgVzbJGgZmjvEK-78" target="wh4o8MqgVzbJGgZmjvEK-31" edge="1">
          <mxGeometry width="80" relative="1" as="geometry">
            <mxPoint x="-910" y="-200" as="sourcePoint" />
            <mxPoint x="-830" y="-200" as="targetPoint" />
            <mxPoint as="offset" />
          </mxGeometry>
        </mxCell>
        <mxCell id="wh4o8MqgVzbJGgZmjvEK-140" value="&quot;include&quot;" style="html=1;verticalAlign=bottom;endArrow=classic;curved=0;rounded=0;dashed=1;endFill=1;" parent="1" source="wh4o8MqgVzbJGgZmjvEK-15" target="wh4o8MqgVzbJGgZmjvEK-30" edge="1">
          <mxGeometry width="80" relative="1" as="geometry">
            <mxPoint x="-590" y="-530" as="sourcePoint" />
            <mxPoint x="-590" y="-650" as="targetPoint" />
            <mxPoint as="offset" />
          </mxGeometry>
        </mxCell>
        <mxCell id="wh4o8MqgVzbJGgZmjvEK-142" value="&lt;h1 style=&quot;margin-top: 0px;&quot;&gt;Диаграмма&lt;/h1&gt;&lt;h1 style=&quot;margin-top: 0px;&quot;&gt;вариантов использования&lt;/h1&gt;" style="text;html=1;whiteSpace=wrap;overflow=hidden;rounded=0;" parent="1" vertex="1">
          <mxGeometry x="-1600" y="-1120" width="320" height="90" as="geometry" />
        </mxCell>
        <mxCell id="wh4o8MqgVzbJGgZmjvEK-154" value="" style="shape=umlLifeline;perimeter=lifelinePerimeter;whiteSpace=wrap;html=1;container=1;dropTarget=0;collapsible=0;recursiveResize=0;outlineConnect=0;portConstraint=eastwest;newEdgeStyle={&quot;curved&quot;:0,&quot;rounded&quot;:0};participant=umlActor;" parent="1" vertex="1">
          <mxGeometry x="-1510" y="300" width="20" height="520" as="geometry" />
        </mxCell>
        <mxCell id="wh4o8MqgVzbJGgZmjvEK-160" value="" style="html=1;points=[[0,0,0,0,5],[0,1,0,0,-5],[1,0,0,0,5],[1,1,0,0,-5]];perimeter=orthogonalPerimeter;outlineConnect=0;targetShapes=umlLifeline;portConstraint=eastwest;newEdgeStyle={&quot;curved&quot;:0,&quot;rounded&quot;:0};" parent="wh4o8MqgVzbJGgZmjvEK-154" vertex="1">
          <mxGeometry x="5" y="50" width="10" height="430" as="geometry" />
        </mxCell>
        <mxCell id="wh4o8MqgVzbJGgZmjvEK-155" value="" style="shape=umlLifeline;perimeter=lifelinePerimeter;whiteSpace=wrap;html=1;container=1;dropTarget=0;collapsible=0;recursiveResize=0;outlineConnect=0;portConstraint=eastwest;newEdgeStyle={&quot;curved&quot;:0,&quot;rounded&quot;:0};participant=umlActor;" parent="1" vertex="1">
          <mxGeometry x="-1270" y="300" width="20" height="520" as="geometry" />
        </mxCell>
        <mxCell id="wh4o8MqgVzbJGgZmjvEK-162" value="" style="html=1;points=[[0,0,0,0,5],[0,1,0,0,-5],[1,0,0,0,5],[1,1,0,0,-5]];perimeter=orthogonalPerimeter;outlineConnect=0;targetShapes=umlLifeline;portConstraint=eastwest;newEdgeStyle={&quot;curved&quot;:0,&quot;rounded&quot;:0};" parent="wh4o8MqgVzbJGgZmjvEK-155" vertex="1">
          <mxGeometry x="5" y="50" width="10" height="430" as="geometry" />
        </mxCell>
        <mxCell id="wh4o8MqgVzbJGgZmjvEK-156" value="Информационная система" style="shape=umlLifeline;perimeter=lifelinePerimeter;whiteSpace=wrap;html=1;container=1;dropTarget=0;collapsible=0;recursiveResize=0;outlineConnect=0;portConstraint=eastwest;newEdgeStyle={&quot;curved&quot;:0,&quot;rounded&quot;:0};rounded=1;" parent="1" vertex="1">
          <mxGeometry x="-1080" y="300" width="120" height="520" as="geometry" />
        </mxCell>
        <mxCell id="wh4o8MqgVzbJGgZmjvEK-176" value="" style="html=1;points=[[0,0,0,0,5],[0,1,0,0,-5],[1,0,0,0,5],[1,1,0,0,-5]];perimeter=orthogonalPerimeter;outlineConnect=0;targetShapes=umlLifeline;portConstraint=eastwest;newEdgeStyle={&quot;curved&quot;:0,&quot;rounded&quot;:0};" parent="wh4o8MqgVzbJGgZmjvEK-156" vertex="1">
          <mxGeometry x="55" y="50" width="10" height="430" as="geometry" />
        </mxCell>
        <mxCell id="wh4o8MqgVzbJGgZmjvEK-184" value="" style="html=1;points=[[0,0,0,0,5],[0,1,0,0,-5],[1,0,0,0,5],[1,1,0,0,-5]];perimeter=orthogonalPerimeter;outlineConnect=0;targetShapes=umlLifeline;portConstraint=eastwest;newEdgeStyle={&quot;curved&quot;:0,&quot;rounded&quot;:0};" parent="wh4o8MqgVzbJGgZmjvEK-156" vertex="1">
          <mxGeometry x="60" y="94" width="10" height="40" as="geometry" />
        </mxCell>
        <mxCell id="wh4o8MqgVzbJGgZmjvEK-185" value="1.1.1: Поиск пациента в реестре" style="html=1;align=left;spacingLeft=2;endArrow=block;rounded=0;edgeStyle=orthogonalEdgeStyle;curved=0;rounded=0;" parent="wh4o8MqgVzbJGgZmjvEK-156" target="wh4o8MqgVzbJGgZmjvEK-184" edge="1">
          <mxGeometry relative="1" as="geometry">
            <mxPoint x="65" y="80" as="sourcePoint" />
            <Array as="points">
              <mxPoint x="95" y="110" />
            </Array>
          </mxGeometry>
        </mxCell>
        <mxCell id="wh4o8MqgVzbJGgZmjvEK-199" value="" style="html=1;points=[[0,0,0,0,5],[0,1,0,0,-5],[1,0,0,0,5],[1,1,0,0,-5]];perimeter=orthogonalPerimeter;outlineConnect=0;targetShapes=umlLifeline;portConstraint=eastwest;newEdgeStyle={&quot;curved&quot;:0,&quot;rounded&quot;:0};" parent="wh4o8MqgVzbJGgZmjvEK-156" vertex="1">
          <mxGeometry x="60" y="320" width="10" height="40" as="geometry" />
        </mxCell>
        <mxCell id="wh4o8MqgVzbJGgZmjvEK-200" value="1.1.3: Поиск свободных слотов&lt;div&gt;в расписании&lt;/div&gt;" style="html=1;align=left;spacingLeft=2;endArrow=block;rounded=0;edgeStyle=orthogonalEdgeStyle;curved=0;rounded=0;" parent="wh4o8MqgVzbJGgZmjvEK-156" target="wh4o8MqgVzbJGgZmjvEK-199" edge="1">
          <mxGeometry x="0.0069" relative="1" as="geometry">
            <mxPoint x="65" y="300" as="sourcePoint" />
            <Array as="points">
              <mxPoint x="95" y="330" />
            </Array>
            <mxPoint as="offset" />
          </mxGeometry>
        </mxCell>
        <mxCell id="wh4o8MqgVzbJGgZmjvEK-208" value="" style="html=1;points=[[0,0,0,0,5],[0,1,0,0,-5],[1,0,0,0,5],[1,1,0,0,-5]];perimeter=orthogonalPerimeter;outlineConnect=0;targetShapes=umlLifeline;portConstraint=eastwest;newEdgeStyle={&quot;curved&quot;:0,&quot;rounded&quot;:0};" parent="wh4o8MqgVzbJGgZmjvEK-156" vertex="1">
          <mxGeometry x="60" y="420" width="10" height="40" as="geometry" />
        </mxCell>
        <mxCell id="wh4o8MqgVzbJGgZmjvEK-209" value="2.1.1: Формирование нового&lt;div&gt;расписания&amp;nbsp;&lt;/div&gt;" style="html=1;align=left;spacingLeft=2;endArrow=block;rounded=0;edgeStyle=orthogonalEdgeStyle;curved=0;rounded=0;" parent="wh4o8MqgVzbJGgZmjvEK-156" target="wh4o8MqgVzbJGgZmjvEK-208" edge="1">
          <mxGeometry relative="1" as="geometry">
            <mxPoint x="65" y="400" as="sourcePoint" />
            <Array as="points">
              <mxPoint x="95" y="430" />
            </Array>
          </mxGeometry>
        </mxCell>
        <mxCell id="wh4o8MqgVzbJGgZmjvEK-157" value="Пациент" style="text;html=1;align=center;verticalAlign=middle;whiteSpace=wrap;rounded=0;" parent="1" vertex="1">
          <mxGeometry x="-1530" y="270" width="60" height="30" as="geometry" />
        </mxCell>
        <mxCell id="wh4o8MqgVzbJGgZmjvEK-158" value="Администратор" style="text;html=1;align=center;verticalAlign=middle;whiteSpace=wrap;rounded=0;" parent="1" vertex="1">
          <mxGeometry x="-1290" y="270" width="60" height="30" as="geometry" />
        </mxCell>
        <mxCell id="wh4o8MqgVzbJGgZmjvEK-161" value="1: Запрос на запись" style="html=1;verticalAlign=bottom;endArrow=block;curved=0;rounded=0;" parent="1" target="wh4o8MqgVzbJGgZmjvEK-162" edge="1">
          <mxGeometry width="80" relative="1" as="geometry">
            <mxPoint x="-1495" y="361" as="sourcePoint" />
            <mxPoint x="-1385" y="361" as="targetPoint" />
          </mxGeometry>
        </mxCell>
        <mxCell id="wh4o8MqgVzbJGgZmjvEK-165" value="alt" style="shape=umlFrame;whiteSpace=wrap;html=1;pointerEvents=0;" parent="1" vertex="1">
          <mxGeometry x="-1580" y="400" width="780" height="150" as="geometry" />
        </mxCell>
        <mxCell id="wh4o8MqgVzbJGgZmjvEK-166" value="&lt;span style=&quot;background-color: rgb(204, 204, 204);&quot;&gt;Если пациент ранее не обслуживался&lt;/span&gt;" style="text;html=1;align=center;verticalAlign=middle;whiteSpace=wrap;rounded=0;" parent="1" vertex="1">
          <mxGeometry x="-1496" y="402" width="230" height="20" as="geometry" />
        </mxCell>
        <mxCell id="wh4o8MqgVzbJGgZmjvEK-167" value="&quot;extend&quot;" style="html=1;verticalAlign=bottom;endArrow=classic;curved=0;rounded=0;dashed=1;endFill=1;" parent="1" source="wh4o8MqgVzbJGgZmjvEK-82" target="wh4o8MqgVzbJGgZmjvEK-10" edge="1">
          <mxGeometry width="80" relative="1" as="geometry">
            <mxPoint x="-1250" y="-810" as="sourcePoint" />
            <mxPoint x="-1170" y="-810" as="targetPoint" />
            <mxPoint as="offset" />
          </mxGeometry>
        </mxCell>
        <mxCell id="wh4o8MqgVzbJGgZmjvEK-177" value="1.1: Проверка наличия пациента в БД" style="html=1;verticalAlign=bottom;endArrow=block;curved=0;rounded=0;" parent="1" edge="1">
          <mxGeometry width="80" relative="1" as="geometry">
            <mxPoint x="-1255" y="370" as="sourcePoint" />
            <mxPoint x="-1025" y="370" as="targetPoint" />
          </mxGeometry>
        </mxCell>
        <mxCell id="wh4o8MqgVzbJGgZmjvEK-186" value="1.1.2: Возврат отказа" style="html=1;verticalAlign=bottom;endArrow=open;dashed=1;endSize=8;curved=0;rounded=0;" parent="1" edge="1">
          <mxGeometry relative="1" as="geometry">
            <mxPoint x="-1024.9999999999995" y="419" as="sourcePoint" />
            <mxPoint x="-1255" y="419" as="targetPoint" />
          </mxGeometry>
        </mxCell>
        <mxCell id="wh4o8MqgVzbJGgZmjvEK-188" value="1.2: Выдача регистрационной формы" style="html=1;verticalAlign=bottom;endArrow=open;dashed=1;endSize=8;curved=0;rounded=0;" parent="1" edge="1">
          <mxGeometry relative="1" as="geometry">
            <mxPoint x="-1265" y="438" as="sourcePoint" />
            <mxPoint x="-1495" y="438" as="targetPoint" />
          </mxGeometry>
        </mxCell>
        <mxCell id="wh4o8MqgVzbJGgZmjvEK-189" value="2: Запрос на регистрацию" style="html=1;verticalAlign=bottom;endArrow=block;curved=0;rounded=0;" parent="1" edge="1">
          <mxGeometry width="80" relative="1" as="geometry">
            <mxPoint x="-1496" y="460" as="sourcePoint" />
            <mxPoint x="-1266" y="460" as="targetPoint" />
          </mxGeometry>
        </mxCell>
        <mxCell id="wh4o8MqgVzbJGgZmjvEK-190" value="2.1: Передача данных о пациенте" style="html=1;verticalAlign=bottom;endArrow=block;curved=0;rounded=0;" parent="1" edge="1">
          <mxGeometry width="80" relative="1" as="geometry">
            <mxPoint x="-1255" y="468" as="sourcePoint" />
            <mxPoint x="-1025" y="468" as="targetPoint" />
          </mxGeometry>
        </mxCell>
        <mxCell id="wh4o8MqgVzbJGgZmjvEK-191" value="" style="html=1;points=[[0,0,0,0,5],[0,1,0,0,-5],[1,0,0,0,5],[1,1,0,0,-5]];perimeter=orthogonalPerimeter;outlineConnect=0;targetShapes=umlLifeline;portConstraint=eastwest;newEdgeStyle={&quot;curved&quot;:0,&quot;rounded&quot;:0};" parent="1" vertex="1">
          <mxGeometry x="-1020" y="500" width="10" height="40" as="geometry" />
        </mxCell>
        <mxCell id="wh4o8MqgVzbJGgZmjvEK-192" value="2.1.1: Внесение пациента в реестр" style="html=1;align=left;spacingLeft=2;endArrow=block;rounded=0;edgeStyle=orthogonalEdgeStyle;curved=0;rounded=0;" parent="1" target="wh4o8MqgVzbJGgZmjvEK-191" edge="1">
          <mxGeometry relative="1" as="geometry">
            <mxPoint x="-1015" y="480" as="sourcePoint" />
            <Array as="points">
              <mxPoint x="-985" y="510" />
            </Array>
          </mxGeometry>
        </mxCell>
        <mxCell id="wh4o8MqgVzbJGgZmjvEK-196" value="1.1.2: Возврат данных о пациенте" style="html=1;verticalAlign=bottom;endArrow=open;dashed=1;endSize=8;curved=0;rounded=0;" parent="1" edge="1">
          <mxGeometry relative="1" as="geometry">
            <mxPoint x="-1025" y="569" as="sourcePoint" />
            <mxPoint x="-1255" y="569" as="targetPoint" />
          </mxGeometry>
        </mxCell>
        <mxCell id="wh4o8MqgVzbJGgZmjvEK-198" value="1.2: Запрос на свободные слоты" style="html=1;verticalAlign=bottom;endArrow=block;curved=0;rounded=0;" parent="1" edge="1">
          <mxGeometry width="80" relative="1" as="geometry">
            <mxPoint x="-1255" y="591" as="sourcePoint" />
            <mxPoint x="-1025" y="591" as="targetPoint" />
          </mxGeometry>
        </mxCell>
        <mxCell id="wh4o8MqgVzbJGgZmjvEK-201" value="1.1.4: Возврат информации о свободных&lt;div&gt;слотах&lt;/div&gt;" style="html=1;verticalAlign=bottom;endArrow=open;dashed=1;endSize=8;curved=0;rounded=0;" parent="1" edge="1">
          <mxGeometry relative="1" as="geometry">
            <mxPoint x="-1025" y="638" as="sourcePoint" />
            <mxPoint x="-1255" y="638" as="targetPoint" />
            <mxPoint as="offset" />
          </mxGeometry>
        </mxCell>
        <mxCell id="wh4o8MqgVzbJGgZmjvEK-203" value="1.3: Предоставление информации о&lt;div&gt;свободных слотах&lt;/div&gt;" style="html=1;verticalAlign=bottom;endArrow=open;dashed=1;endSize=8;curved=0;rounded=0;" parent="1" edge="1">
          <mxGeometry relative="1" as="geometry">
            <mxPoint x="-1265" y="648" as="sourcePoint" />
            <mxPoint x="-1495" y="648" as="targetPoint" />
            <mxPoint as="offset" />
          </mxGeometry>
        </mxCell>
        <mxCell id="wh4o8MqgVzbJGgZmjvEK-204" value="2: Выбор доступных даты и времени" style="html=1;verticalAlign=bottom;endArrow=block;curved=0;rounded=0;" parent="1" edge="1">
          <mxGeometry width="80" relative="1" as="geometry">
            <mxPoint x="-1495" y="678" as="sourcePoint" />
            <mxPoint x="-1265" y="678" as="targetPoint" />
          </mxGeometry>
        </mxCell>
        <mxCell id="wh4o8MqgVzbJGgZmjvEK-205" value="2.1: Запись пациента на прием&amp;nbsp;" style="html=1;verticalAlign=bottom;endArrow=block;curved=0;rounded=0;" parent="1" source="wh4o8MqgVzbJGgZmjvEK-162" edge="1">
          <mxGeometry x="0.0015" width="80" relative="1" as="geometry">
            <mxPoint x="-1260.3333333333335" y="689" as="sourcePoint" />
            <mxPoint x="-1025" y="689" as="targetPoint" />
            <mxPoint as="offset" />
          </mxGeometry>
        </mxCell>
        <mxCell id="wh4o8MqgVzbJGgZmjvEK-210" value="2.1.2: Возврат сформированного&lt;div&gt;расписания&lt;/div&gt;" style="html=1;verticalAlign=bottom;endArrow=open;dashed=1;endSize=8;curved=0;rounded=0;" parent="1" edge="1">
          <mxGeometry relative="1" as="geometry">
            <mxPoint x="-1025.0000000000005" y="740" as="sourcePoint" />
            <mxPoint x="-1255.0000000000005" y="740" as="targetPoint" />
            <mxPoint as="offset" />
          </mxGeometry>
        </mxCell>
        <mxCell id="wh4o8MqgVzbJGgZmjvEK-211" value="2.2: Подтверждение записи" style="html=1;verticalAlign=bottom;endArrow=open;dashed=1;endSize=8;curved=0;rounded=0;" parent="1" edge="1">
          <mxGeometry relative="1" as="geometry">
            <mxPoint x="-1265.0000000000005" y="749" as="sourcePoint" />
            <mxPoint x="-1495" y="749" as="targetPoint" />
            <mxPoint as="offset" />
          </mxGeometry>
        </mxCell>
        <mxCell id="wh4o8MqgVzbJGgZmjvEK-213" value="&lt;h1 style=&quot;margin-top: 0px;&quot;&gt;Диаграмма&lt;/h1&gt;&lt;h1 style=&quot;margin-top: 0px;&quot;&gt;последовательности (запись пациента)&lt;/h1&gt;" style="text;html=1;whiteSpace=wrap;overflow=hidden;rounded=0;" parent="1" vertex="1">
          <mxGeometry x="-1600" y="160" width="820" height="90" as="geometry" />
        </mxCell>
        <mxCell id="wh4o8MqgVzbJGgZmjvEK-214" value="Клиент" style="shape=umlActor;verticalLabelPosition=top;verticalAlign=bottom;html=1;outlineConnect=0;labelPosition=center;align=center;" parent="1" vertex="1">
          <mxGeometry x="-1575" y="1020" width="30" height="60" as="geometry" />
        </mxCell>
        <mxCell id="wh4o8MqgVzbJGgZmjvEK-216" value="Информационная система" style="rounded=1;whiteSpace=wrap;html=1;" parent="1" vertex="1">
          <mxGeometry x="-1220" y="1430" width="120" height="60" as="geometry" />
        </mxCell>
        <mxCell id="wh4o8MqgVzbJGgZmjvEK-219" value="" style="endArrow=none;html=1;rounded=0;" parent="1" source="wh4o8MqgVzbJGgZmjvEK-214" target="wh4o8MqgVzbJGgZmjvEK-215" edge="1">
          <mxGeometry width="50" height="50" relative="1" as="geometry">
            <mxPoint x="-1460" y="1120" as="sourcePoint" />
            <mxPoint x="-1410" y="1070" as="targetPoint" />
          </mxGeometry>
        </mxCell>
        <mxCell id="wh4o8MqgVzbJGgZmjvEK-220" value="" style="endArrow=none;html=1;rounded=0;" parent="1" source="wh4o8MqgVzbJGgZmjvEK-216" target="wh4o8MqgVzbJGgZmjvEK-215" edge="1">
          <mxGeometry width="50" height="50" relative="1" as="geometry">
            <mxPoint x="-1535" y="1060" as="sourcePoint" />
            <mxPoint x="-1165" y="1060" as="targetPoint" />
          </mxGeometry>
        </mxCell>
        <mxCell id="wh4o8MqgVzbJGgZmjvEK-215" value="&lt;span style=&quot;background-color: rgb(255, 255, 255);&quot;&gt;Сотрудник&lt;/span&gt;" style="shape=umlActor;verticalLabelPosition=top;verticalAlign=bottom;html=1;outlineConnect=0;labelPosition=center;align=center;" parent="1" vertex="1">
          <mxGeometry x="-1175" y="1020" width="30" height="60" as="geometry" />
        </mxCell>
        <mxCell id="wh4o8MqgVzbJGgZmjvEK-221" value="1: Запрос на запись" style="html=1;verticalAlign=bottom;endArrow=block;curved=0;rounded=0;" parent="1" edge="1">
          <mxGeometry width="80" relative="1" as="geometry">
            <mxPoint x="-1520" y="1039" as="sourcePoint" />
            <mxPoint x="-1440" y="1039" as="targetPoint" />
          </mxGeometry>
        </mxCell>
        <mxCell id="wh4o8MqgVzbJGgZmjvEK-222" value="2: Проверка наличия клиента в БД&amp;nbsp;" style="html=1;verticalAlign=bottom;endArrow=block;curved=0;rounded=0;align=left;" parent="1" edge="1">
          <mxGeometry width="80" relative="1" as="geometry">
            <mxPoint x="-1148.69" y="1089" as="sourcePoint" />
            <mxPoint x="-1148.69" y="1168.4328571428555" as="targetPoint" />
          </mxGeometry>
        </mxCell>
        <mxCell id="wh4o8MqgVzbJGgZmjvEK-223" value="3: Поиск клиента в реестре" style="html=1;verticalAlign=bottom;endArrow=block;rounded=0;exitX=0.5;exitY=1;exitDx=0;exitDy=0;edgeStyle=orthogonalEdgeStyle;align=left;" parent="1" edge="1">
          <mxGeometry width="80" relative="1" as="geometry">
            <mxPoint x="-1160" y="1490" as="sourcePoint" />
            <mxPoint x="-1220" y="1470" as="targetPoint" />
            <Array as="points">
              <mxPoint x="-1160" y="1510" />
              <mxPoint x="-1350" y="1510" />
              <mxPoint x="-1350" y="1470" />
            </Array>
          </mxGeometry>
        </mxCell>
        <mxCell id="wh4o8MqgVzbJGgZmjvEK-225" value="4: Возврат отказа" style="html=1;verticalAlign=bottom;endArrow=open;dashed=1;endSize=8;curved=0;rounded=0;align=right;" parent="1" edge="1">
          <mxGeometry relative="1" as="geometry">
            <mxPoint x="-1170" y="1418" as="sourcePoint" />
            <mxPoint x="-1170" y="1338" as="targetPoint" />
          </mxGeometry>
        </mxCell>
        <mxCell id="wh4o8MqgVzbJGgZmjvEK-226" value="5: Выдача регистрационной формы" style="html=1;verticalAlign=bottom;endArrow=open;dashed=1;endSize=8;curved=0;rounded=0;" parent="1" edge="1">
          <mxGeometry relative="1" as="geometry">
            <mxPoint x="-1227" y="1069.1699999999998" as="sourcePoint" />
            <mxPoint x="-1307" y="1069.1699999999998" as="targetPoint" />
          </mxGeometry>
        </mxCell>
        <mxCell id="wh4o8MqgVzbJGgZmjvEK-227" value="6: Запрос на регистрацию" style="html=1;verticalAlign=bottom;endArrow=block;curved=0;rounded=0;" parent="1" edge="1">
          <mxGeometry width="80" relative="1" as="geometry">
            <mxPoint x="-1490" y="1019.1700000000001" as="sourcePoint" />
            <mxPoint x="-1410" y="1019.1700000000001" as="targetPoint" />
          </mxGeometry>
        </mxCell>
        <mxCell id="wh4o8MqgVzbJGgZmjvEK-228" value="7: Передача данных о клиенте&amp;nbsp;" style="html=1;verticalAlign=bottom;endArrow=block;curved=0;rounded=0;align=left;" parent="1" edge="1">
          <mxGeometry width="80" relative="1" as="geometry">
            <mxPoint x="-1140" y="1129.5700000000002" as="sourcePoint" />
            <mxPoint x="-1140" y="1209.0028571428556" as="targetPoint" />
          </mxGeometry>
        </mxCell>
        <mxCell id="wh4o8MqgVzbJGgZmjvEK-229" value="8: Внесение клиента&amp;nbsp;в реестр" style="html=1;verticalAlign=bottom;endArrow=block;rounded=0;exitX=0.5;exitY=1;exitDx=0;exitDy=0;edgeStyle=orthogonalEdgeStyle;align=left;" parent="1" edge="1">
          <mxGeometry x="0.0001" width="80" relative="1" as="geometry">
            <mxPoint x="-1150" y="1490" as="sourcePoint" />
            <mxPoint x="-1220" y="1460" as="targetPoint" />
            <Array as="points">
              <mxPoint x="-1150" y="1530" />
              <mxPoint x="-1370" y="1530" />
              <mxPoint x="-1370" y="1460" />
            </Array>
            <mxPoint as="offset" />
          </mxGeometry>
        </mxCell>
        <mxCell id="wh4o8MqgVzbJGgZmjvEK-231" value="9: Возврат данных о&amp;nbsp;&lt;span style=&quot;text-align: left;&quot;&gt;клиенте&lt;/span&gt;" style="html=1;verticalAlign=bottom;endArrow=open;dashed=1;endSize=8;curved=0;rounded=0;align=right;" parent="1" edge="1">
          <mxGeometry relative="1" as="geometry">
            <mxPoint x="-1180" y="1358" as="sourcePoint" />
            <mxPoint x="-1180" y="1278" as="targetPoint" />
            <mxPoint as="offset" />
          </mxGeometry>
        </mxCell>
        <mxCell id="wh4o8MqgVzbJGgZmjvEK-232" value="10: Запрос на свободные места в расписании" style="html=1;verticalAlign=bottom;endArrow=block;curved=0;rounded=0;align=left;" parent="1" edge="1">
          <mxGeometry x="0.0071" width="80" relative="1" as="geometry">
            <mxPoint x="-1130" y="1170" as="sourcePoint" />
            <mxPoint x="-1130" y="1249.4328571428555" as="targetPoint" />
            <mxPoint as="offset" />
          </mxGeometry>
        </mxCell>
        <mxCell id="wh4o8MqgVzbJGgZmjvEK-233" value="11: Поиск свободных местах в расписании" style="html=1;verticalAlign=bottom;endArrow=block;rounded=0;edgeStyle=orthogonalEdgeStyle;align=left;" parent="1" source="wh4o8MqgVzbJGgZmjvEK-216" edge="1">
          <mxGeometry x="-0.0007" width="80" relative="1" as="geometry">
            <mxPoint x="-1140" y="1500" as="sourcePoint" />
            <mxPoint x="-1220" y="1450" as="targetPoint" />
            <Array as="points">
              <mxPoint x="-1140" y="1550" />
              <mxPoint x="-1390" y="1550" />
              <mxPoint x="-1390" y="1450" />
            </Array>
            <mxPoint as="offset" />
          </mxGeometry>
        </mxCell>
        <mxCell id="wh4o8MqgVzbJGgZmjvEK-234" value="12: Возврат информации о свободных местах" style="html=1;verticalAlign=bottom;endArrow=open;dashed=1;endSize=8;curved=0;rounded=0;align=right;" parent="1" edge="1">
          <mxGeometry relative="1" as="geometry">
            <mxPoint x="-1190" y="1298" as="sourcePoint" />
            <mxPoint x="-1190" y="1218" as="targetPoint" />
          </mxGeometry>
        </mxCell>
        <mxCell id="wh4o8MqgVzbJGgZmjvEK-235" value="13: Предоставление информации о свободных местах" style="html=1;verticalAlign=bottom;endArrow=open;dashed=1;endSize=8;curved=0;rounded=0;" parent="1" edge="1">
          <mxGeometry relative="1" as="geometry">
            <mxPoint x="-1275" y="1089.9999999999998" as="sourcePoint" />
            <mxPoint x="-1355" y="1089.9999999999998" as="targetPoint" />
          </mxGeometry>
        </mxCell>
        <mxCell id="wh4o8MqgVzbJGgZmjvEK-237" value="14: Выбор доступных даты и времени" style="html=1;verticalAlign=bottom;endArrow=block;curved=0;rounded=0;" parent="1" edge="1">
          <mxGeometry width="80" relative="1" as="geometry">
            <mxPoint x="-1447" y="999" as="sourcePoint" />
            <mxPoint x="-1367" y="999" as="targetPoint" />
          </mxGeometry>
        </mxCell>
        <mxCell id="wh4o8MqgVzbJGgZmjvEK-238" value="15: Запись клиента" style="html=1;verticalAlign=bottom;endArrow=block;curved=0;rounded=0;align=left;" parent="1" edge="1">
          <mxGeometry x="0.0071" width="80" relative="1" as="geometry">
            <mxPoint x="-1120" y="1210" as="sourcePoint" />
            <mxPoint x="-1120" y="1289.4328571428555" as="targetPoint" />
            <mxPoint as="offset" />
          </mxGeometry>
        </mxCell>
        <mxCell id="wh4o8MqgVzbJGgZmjvEK-239" value="16: Формирование нового расписания" style="html=1;verticalAlign=bottom;endArrow=block;rounded=0;edgeStyle=orthogonalEdgeStyle;align=left;exitX=0.75;exitY=1;exitDx=0;exitDy=0;exitPerimeter=0;entryX=0;entryY=0.167;entryDx=0;entryDy=0;entryPerimeter=0;" parent="1" source="wh4o8MqgVzbJGgZmjvEK-216" target="wh4o8MqgVzbJGgZmjvEK-216" edge="1">
          <mxGeometry x="-0.0007" width="80" relative="1" as="geometry">
            <mxPoint x="-1130" y="1500" as="sourcePoint" />
            <mxPoint x="-1223" y="1440" as="targetPoint" />
            <Array as="points">
              <mxPoint x="-1130" y="1570" />
              <mxPoint x="-1410" y="1570" />
              <mxPoint x="-1410" y="1440" />
            </Array>
            <mxPoint as="offset" />
          </mxGeometry>
        </mxCell>
        <mxCell id="wh4o8MqgVzbJGgZmjvEK-240" value="17: Возврат сформированного расписания" style="html=1;verticalAlign=bottom;endArrow=open;dashed=1;endSize=8;curved=0;rounded=0;align=right;" parent="1" edge="1">
          <mxGeometry relative="1" as="geometry">
            <mxPoint x="-1200" y="1240" as="sourcePoint" />
            <mxPoint x="-1200" y="1160" as="targetPoint" />
          </mxGeometry>
        </mxCell>
        <mxCell id="wh4o8MqgVzbJGgZmjvEK-241" value="18: Подтверждение записи" style="html=1;verticalAlign=bottom;endArrow=open;dashed=1;endSize=8;curved=0;rounded=0;" parent="1" edge="1">
          <mxGeometry relative="1" as="geometry">
            <mxPoint x="-1204" y="1109.9999999999998" as="sourcePoint" />
            <mxPoint x="-1284" y="1109.9999999999998" as="targetPoint" />
          </mxGeometry>
        </mxCell>
        <mxCell id="wh4o8MqgVzbJGgZmjvEK-243" value="&lt;h1 style=&quot;margin-top: 0px; font-size: 30px;&quot;&gt;Диаграмма кооперации (запись клиента)&lt;/h1&gt;" style="text;html=1;whiteSpace=wrap;overflow=hidden;rounded=0;" parent="1" vertex="1">
          <mxGeometry x="-1600" y="881" width="750" height="90" as="geometry" />
        </mxCell>
        <mxCell id="DHmZTs1CuRAezg29g5oL-22" value="&lt;p style=&quot;margin:0px;margin-top:4px;text-align:center;&quot;&gt;&lt;i&gt;&amp;lt;&amp;lt;Entity&amp;gt;&amp;gt;&lt;/i&gt;&lt;br&gt;&lt;b&gt;Стоматолог&lt;/b&gt;&lt;/p&gt;&lt;hr size=&quot;1&quot; style=&quot;border-style:solid;&quot;&gt;&lt;p style=&quot;margin:0px;margin-left:4px;&quot;&gt;- имя: String&lt;/p&gt;&lt;p style=&quot;margin: 0px 0px 0px 4px;&quot;&gt;- логин: String&lt;/p&gt;&lt;p style=&quot;margin: 0px 0px 0px 4px;&quot;&gt;- пароль: String&lt;/p&gt;&lt;p style=&quot;margin:0px;margin-left:4px;&quot;&gt;- специализация: String&lt;/p&gt;&lt;p style=&quot;margin:0px;margin-left:4px;&quot;&gt;- стаж: int&lt;/p&gt;&lt;p style=&quot;margin:0px;margin-left:4px;&quot;&gt;- пациенты: List&amp;lt;Пациент&amp;gt;&lt;/p&gt;&lt;p style=&quot;margin:0px;margin-left:4px;&quot;&gt;- услуги: List&amp;lt;Услуга&amp;gt;&lt;/p&gt;&lt;hr size=&quot;1&quot; style=&quot;border-style:solid;&quot;&gt;&lt;p style=&quot;margin:0px;margin-left:4px;&quot;&gt;+ Получение данных(): String[]&lt;/p&gt;&lt;p style=&quot;margin:0px;margin-left:4px;&quot;&gt;+ Добавить пациента(пациент: Пациент): void&lt;/p&gt;&lt;p style=&quot;margin:0px;margin-left:4px;&quot;&gt;+ Удалить пациента(пациент: Пациент): void&lt;/p&gt;&lt;p style=&quot;margin:0px;margin-left:4px;&quot;&gt;+ Показать список пациентов(): List&amp;lt;Пациент&amp;gt;&lt;/p&gt;&lt;p style=&quot;margin:0px;margin-left:4px;&quot;&gt;+ Добавить услугу(услуга: Услуга): void&lt;/p&gt;&lt;p style=&quot;margin:0px;margin-left:4px;&quot;&gt;+ Удалить услугу(услуга: Услуга): void&lt;/p&gt;&lt;p style=&quot;margin:0px;margin-left:4px;&quot;&gt;+ Показать список услуг(): List&amp;lt;Услуга&amp;gt;&lt;/p&gt;&lt;p style=&quot;margin:0px;margin-left:4px;&quot;&gt;+ Просмотреть график(график: График): График&lt;/p&gt;&lt;p style=&quot;margin:0px;margin-left:4px;&quot;&gt;+ Добавить запись в медицинскую карту(пациент: Пациент, запись: Запись): void&lt;br&gt;&lt;/p&gt;" style="verticalAlign=top;align=left;overflow=fill;html=1;whiteSpace=wrap;" parent="1" vertex="1">
          <mxGeometry x="-1270" y="2070" width="480" height="320" as="geometry" />
        </mxCell>
        <mxCell id="DHmZTs1CuRAezg29g5oL-23" value="&lt;p style=&quot;margin:0px;margin-top:4px;text-align:center;&quot;&gt;&lt;i&gt;&amp;lt;&amp;lt;Entity&amp;gt;&amp;gt;&lt;/i&gt;&lt;br&gt;&lt;b&gt;Пациент&lt;/b&gt;&lt;/p&gt;&lt;hr size=&quot;1&quot; style=&quot;border-style:solid;&quot;&gt;&lt;p style=&quot;margin:0px;margin-left:4px;&quot;&gt;- имя: String&lt;/p&gt;&lt;p style=&quot;margin:0px;margin-left:4px;&quot;&gt;- возраст: int&lt;/p&gt;&lt;p style=&quot;margin:0px;margin-left:4px;&quot;&gt;- медицинская карта: List&amp;lt;Запись&amp;gt;&lt;/p&gt;&lt;p style=&quot;margin:0px;margin-left:4px;&quot;&gt;- документация: List&amp;lt;Файл&amp;gt;&lt;/p&gt;&lt;p style=&quot;margin:0px;margin-left:4px;&quot;&gt;- дата: String&lt;/p&gt;&lt;p style=&quot;margin:0px;margin-left:4px;&quot;&gt;- время: String&lt;/p&gt;&lt;hr size=&quot;1&quot; style=&quot;border-style:solid;&quot;&gt;&lt;p style=&quot;margin:0px;margin-left:4px;&quot;&gt;+ Получение данных(): String[]&lt;/p&gt;&lt;p style=&quot;margin:0px;margin-left:4px;&quot;&gt;+ Добавить документацию(файл Файл): void&lt;/p&gt;&lt;p style=&quot;margin:0px;margin-left:4px;&quot;&gt;+ Показать медицинскую карту(): List&amp;lt;Запись&amp;gt;&lt;/p&gt;&lt;p style=&quot;margin:0px;margin-left:4px;&quot;&gt;+ Показать документацию(): List&amp;lt;Файл&amp;gt;&lt;/p&gt;&lt;p style=&quot;margin:0px;margin-left:4px;&quot;&gt;+ Получить заключение(заключение: Заключение): void&lt;/p&gt;&lt;p style=&quot;margin:0px;margin-left:4px;&quot;&gt;+ Получить рецепт(рецепт: Рецепт): void&lt;/p&gt;" style="verticalAlign=top;align=left;overflow=fill;html=1;whiteSpace=wrap;" parent="1" vertex="1">
          <mxGeometry x="-1210" y="2470" width="360" height="240" as="geometry" />
        </mxCell>
        <mxCell id="DHmZTs1CuRAezg29g5oL-24" value="&lt;p style=&quot;margin:0px;margin-top:4px;text-align:center;&quot;&gt;&lt;i&gt;&amp;lt;&amp;lt;Entity&amp;gt;&amp;gt;&lt;/i&gt;&lt;br&gt;&lt;b&gt;Администратор&lt;/b&gt;&lt;/p&gt;&lt;hr size=&quot;1&quot; style=&quot;border-style:solid;&quot;&gt;&lt;p style=&quot;margin:0px;margin-left:4px;&quot;&gt;- имя: String&lt;/p&gt;&lt;p style=&quot;margin:0px;margin-left:4px;&quot;&gt;- логин: String&lt;/p&gt;&lt;p style=&quot;margin:0px;margin-left:4px;&quot;&gt;- пароль: String&lt;/p&gt;&lt;p style=&quot;margin:0px;margin-left:4px;&quot;&gt;- пациенты: List&amp;lt;Пациент&amp;gt;&lt;/p&gt;&lt;hr size=&quot;1&quot; style=&quot;border-style:solid;&quot;&gt;&lt;p style=&quot;margin:0px;margin-left:4px;&quot;&gt;+ Получение данных(): String[]&lt;/p&gt;&lt;p style=&quot;margin:0px;margin-left:4px;&quot;&gt;+ Регистрация пациента(пациент: Пациент): void&lt;/p&gt;&lt;p style=&quot;margin:0px;margin-left:4px;&quot;&gt;+ Запись пациента(пациент: Пациент, стоматолог: Стоматолог)&lt;/p&gt;" style="verticalAlign=top;align=left;overflow=fill;html=1;whiteSpace=wrap;" parent="1" vertex="1">
          <mxGeometry x="-1212.5" y="2790" width="365" height="162" as="geometry" />
        </mxCell>
        <mxCell id="DHmZTs1CuRAezg29g5oL-25" value="&lt;p style=&quot;margin:0px;margin-top:4px;text-align:center;&quot;&gt;&lt;i&gt;&amp;lt;&amp;lt;Entity&amp;gt;&amp;gt;&lt;/i&gt;&lt;br&gt;&lt;b&gt;График&lt;/b&gt;&lt;/p&gt;&lt;hr size=&quot;1&quot; style=&quot;border-style:solid;&quot;&gt;&lt;p style=&quot;margin:0px;margin-left:4px;&quot;&gt;- время: String&lt;/p&gt;&lt;p style=&quot;margin:0px;margin-left:4px;&quot;&gt;- дата: String&lt;/p&gt;&lt;p style=&quot;margin:0px;margin-left:4px;&quot;&gt;- стоматолог: Стоматолог&lt;/p&gt;&lt;p style=&quot;margin:0px;margin-left:4px;&quot;&gt;- слот: List&amp;lt;List&amp;lt;String&amp;gt;&amp;gt;&lt;/p&gt;&lt;hr size=&quot;1&quot; style=&quot;border-style:solid;&quot;&gt;&lt;p style=&quot;margin:0px;margin-left:4px;&quot;&gt;+ Получить данные(): void&lt;/p&gt;&lt;p style=&quot;margin:0px;margin-left:4px;&quot;&gt;+ Поиск свободного слота(): List&amp;lt;List&amp;lt;String&amp;gt;&amp;gt;&lt;/p&gt;&lt;p style=&quot;margin:0px;margin-left:4px;&quot;&gt;+ Изменить слот(): List&amp;lt;List&amp;lt;String&amp;gt;&amp;gt;&lt;/p&gt;" style="verticalAlign=top;align=left;overflow=fill;html=1;whiteSpace=wrap;" parent="1" vertex="1">
          <mxGeometry x="-1170" y="1830" width="280" height="160" as="geometry" />
        </mxCell>
        <mxCell id="DHmZTs1CuRAezg29g5oL-26" value="&lt;p style=&quot;margin:0px;margin-top:4px;text-align:center;&quot;&gt;&lt;i&gt;&amp;lt;&amp;lt;Entity&amp;gt;&amp;gt;&lt;/i&gt;&lt;br&gt;&lt;b&gt;Услуга&lt;/b&gt;&lt;/p&gt;&lt;hr size=&quot;1&quot; style=&quot;border-style:solid;&quot;&gt;&lt;p style=&quot;margin:0px;margin-left:4px;&quot;&gt;- наименование: String&lt;/p&gt;&lt;p style=&quot;margin:0px;margin-left:4px;&quot;&gt;- кодификатор: String&lt;/p&gt;&lt;hr size=&quot;1&quot; style=&quot;border-style:solid;&quot;&gt;&lt;p style=&quot;margin:0px;margin-left:4px;&quot;&gt;+ Получение данных(): String[]&lt;/p&gt;" style="verticalAlign=top;align=left;overflow=fill;html=1;whiteSpace=wrap;" parent="1" vertex="1">
          <mxGeometry x="-1550" y="2230" width="200" height="120" as="geometry" />
        </mxCell>
        <mxCell id="DHmZTs1CuRAezg29g5oL-27" value="&lt;p style=&quot;margin:0px;margin-top:4px;text-align:center;&quot;&gt;&lt;i&gt;&amp;lt;&amp;lt;Boundary&amp;gt;&amp;gt;&lt;/i&gt;&lt;br&gt;&lt;b&gt;АРМ Администратора&lt;/b&gt;&lt;/p&gt;&lt;hr size=&quot;1&quot; style=&quot;border-style:solid;&quot;&gt;&lt;p style=&quot;margin: 0px 0px 0px 4px;&quot;&gt;+ Войти в систему(логин: String, пароль: String): void&lt;/p&gt;&lt;p style=&quot;margin: 0px 0px 0px 4px;&quot;&gt;- Выйти из системы(): void&lt;/p&gt;&lt;p style=&quot;margin: 0px 0px 0px 4px;&quot;&gt;- Составить отчет(пациент: Пациент, стоматолог Стоматолог): Файл&lt;/p&gt;&lt;p style=&quot;margin: 0px 0px 0px 4px;&quot;&gt;- Внести изменение в расписание(дата: String, время: String, расписание: Расписание): void&lt;/p&gt;" style="verticalAlign=top;align=left;overflow=fill;html=1;whiteSpace=wrap;" parent="1" vertex="1">
          <mxGeometry x="-750" y="2811" width="530" height="120" as="geometry" />
        </mxCell>
        <mxCell id="DHmZTs1CuRAezg29g5oL-28" value="&lt;p style=&quot;margin:0px;margin-top:4px;text-align:center;&quot;&gt;&lt;i&gt;&amp;lt;&amp;lt;Boundary&amp;gt;&amp;gt;&lt;/i&gt;&lt;br&gt;&lt;b&gt;АРМ Стоматолога&lt;/b&gt;&lt;/p&gt;&lt;hr size=&quot;1&quot; style=&quot;border-style:solid;&quot;&gt;&lt;p style=&quot;margin: 0px 0px 0px 4px;&quot;&gt;+ Войти в систему(логин: String, пароль: String): void&lt;/p&gt;&lt;p style=&quot;margin: 0px 0px 0px 4px;&quot;&gt;- Выйти из системы(): void&lt;/p&gt;&lt;p style=&quot;margin: 0px 0px 0px 4px;&quot;&gt;- Составить отчет(пациент: Пациент): Файл&lt;/p&gt;&lt;p style=&quot;margin:0px;margin-left:4px;&quot;&gt;- Составить заключение(пациент: Пациент): Заключение&lt;/p&gt;&lt;p style=&quot;margin:0px;margin-left:4px;&quot;&gt;- Составить рецепт(пациент: Пациент): Рецепт&lt;/p&gt;" style="verticalAlign=top;align=left;overflow=fill;html=1;whiteSpace=wrap;" parent="1" vertex="1">
          <mxGeometry x="-710" y="2170" width="360" height="120" as="geometry" />
        </mxCell>
        <mxCell id="DHmZTs1CuRAezg29g5oL-29" value="&lt;p style=&quot;margin:0px;margin-top:4px;text-align:center;&quot;&gt;&lt;i&gt;&amp;lt;&amp;lt;Control&amp;gt;&amp;gt;&lt;/i&gt;&lt;br&gt;&lt;b&gt;Расписание&lt;/b&gt;&lt;/p&gt;&lt;hr size=&quot;1&quot; style=&quot;border-style:solid;&quot;&gt;&lt;p style=&quot;margin:0px;margin-left:4px;&quot;&gt;- графики: List&amp;lt;График&amp;gt;&lt;/p&gt;&lt;hr size=&quot;1&quot; style=&quot;border-style:solid;&quot;&gt;&lt;p style=&quot;margin:0px;margin-left:4px;&quot;&gt;+ Получить расписание(): List&amp;lt;График&amp;gt;&lt;/p&gt;&lt;p style=&quot;margin:0px;margin-left:4px;&quot;&gt;+ Отсортировать расписание(): List&amp;lt;График&amp;gt;&lt;/p&gt;&lt;p style=&quot;margin:0px;margin-left:4px;&quot;&gt;+ Обновить расписание(): List&amp;lt;График&amp;gt;&lt;/p&gt;&lt;p style=&quot;margin:0px;margin-left:4px;&quot;&gt;+ Изменить график(график: График): График&lt;/p&gt;" style="verticalAlign=top;align=left;overflow=fill;html=1;whiteSpace=wrap;" parent="1" vertex="1">
          <mxGeometry x="170" y="2789" width="280" height="160" as="geometry" />
        </mxCell>
        <mxCell id="DHmZTs1CuRAezg29g5oL-31" value="&lt;p style=&quot;margin:0px;margin-top:4px;text-align:center;&quot;&gt;&lt;i&gt;&amp;lt;&amp;lt;Control&amp;gt;&amp;gt;&lt;/i&gt;&lt;br&gt;&lt;b&gt;Файловое хранилище&lt;/b&gt;&lt;/p&gt;&lt;hr size=&quot;1&quot; style=&quot;border-style:solid;&quot;&gt;&lt;p style=&quot;margin:0px;margin-left:4px;&quot;&gt;- файлы: List&amp;lt;Файл&amp;gt;&lt;/p&gt;&lt;p style=&quot;margin:0px;margin-left:4px;&quot;&gt;- рецепты: List&amp;lt;Рецепт&amp;gt;&lt;/p&gt;&lt;p style=&quot;margin:0px;margin-left:4px;&quot;&gt;- заключения: List&amp;lt;Заключение &amp;gt;&lt;/p&gt;&lt;hr size=&quot;1&quot; style=&quot;border-style:solid;&quot;&gt;&lt;p style=&quot;margin:0px;margin-left:4px;&quot;&gt;+ Поиск файла(файл: Файл): Файл&lt;/p&gt;&lt;p style=&quot;margin:0px;margin-left:4px;&quot;&gt;+ Добавление файла(файл: Файл): void&lt;br&gt;&lt;/p&gt;&lt;p style=&quot;margin:0px;margin-left:4px;&quot;&gt;+ Удаление файла(файл: Файл): void&lt;br&gt;&lt;/p&gt;&lt;p style=&quot;margin: 0px 0px 0px 4px;&quot;&gt;+ Поиск рецепта(рецепт: Рецепт): Рецепт&lt;br&gt;&lt;/p&gt;&lt;p style=&quot;margin: 0px 0px 0px 4px;&quot;&gt;+ Добавление рецепта(рецепт: Рецепт): void&lt;br&gt;&lt;/p&gt;&lt;p style=&quot;margin: 0px 0px 0px 4px;&quot;&gt;+ Удаление рецепта(рецепт: Рецепт): void&lt;/p&gt;&lt;p style=&quot;margin: 0px 0px 0px 4px;&quot;&gt;+ Поиск заключения(заключение: Заключение): Заключение&lt;br&gt;&lt;/p&gt;&lt;p style=&quot;margin: 0px 0px 0px 4px;&quot;&gt;+ Добавление заключения(заключение: Заключение): void&lt;br&gt;&lt;/p&gt;&lt;p style=&quot;margin: 0px 0px 0px 4px;&quot;&gt;+ Удаление заключения(заключение: Заключение): void&lt;/p&gt;" style="verticalAlign=top;align=left;overflow=fill;html=1;whiteSpace=wrap;" parent="1" vertex="1">
          <mxGeometry x="170" y="2210" width="359" height="240" as="geometry" />
        </mxCell>
        <mxCell id="DHmZTs1CuRAezg29g5oL-32" value="&lt;p style=&quot;margin:0px;margin-top:4px;text-align:center;&quot;&gt;&lt;i&gt;&amp;lt;&amp;lt;Entity&amp;gt;&amp;gt;&lt;/i&gt;&lt;br&gt;&lt;b&gt;Стоматологический отчет&lt;/b&gt;&lt;/p&gt;&lt;hr size=&quot;1&quot; style=&quot;border-style:solid;&quot;&gt;&lt;p style=&quot;margin:0px;margin-left:4px;&quot;&gt;- наименование: String&lt;/p&gt;&lt;p style=&quot;margin:0px;margin-left:4px;&quot;&gt;- тип: String&lt;/p&gt;&lt;hr size=&quot;1&quot; style=&quot;border-style:solid;&quot;&gt;&lt;p style=&quot;margin:0px;margin-left:4px;&quot;&gt;+ Получить данные(): String[]&lt;/p&gt;" style="verticalAlign=top;align=left;overflow=fill;html=1;whiteSpace=wrap;" parent="1" vertex="1">
          <mxGeometry x="-230" y="1870" width="200" height="120" as="geometry" />
        </mxCell>
        <mxCell id="DHmZTs1CuRAezg29g5oL-33" value="&lt;p style=&quot;margin:0px;margin-top:4px;text-align:center;&quot;&gt;&lt;i&gt;&amp;lt;&amp;lt;Entity&amp;gt;&amp;gt;&lt;/i&gt;&lt;br&gt;&lt;b&gt;Запись&lt;/b&gt;&lt;/p&gt;&lt;hr size=&quot;1&quot; style=&quot;border-style:solid;&quot;&gt;&lt;p style=&quot;margin:0px;margin-left:4px;&quot;&gt;- дата: String&lt;/p&gt;&lt;p style=&quot;margin:0px;margin-left:4px;&quot;&gt;- результаты диагностики: String&lt;/p&gt;&lt;p style=&quot;margin:0px;margin-left:4px;&quot;&gt;- результаты лечения: String&lt;/p&gt;&lt;hr size=&quot;1&quot; style=&quot;border-style:solid;&quot;&gt;&lt;p style=&quot;margin:0px;margin-left:4px;&quot;&gt;+ Получение данных(): String[]&lt;br&gt;&lt;/p&gt;" style="verticalAlign=top;align=left;overflow=fill;html=1;whiteSpace=wrap;" parent="1" vertex="1">
          <mxGeometry x="-1550" y="2070" width="200" height="120" as="geometry" />
        </mxCell>
        <mxCell id="DHmZTs1CuRAezg29g5oL-35" value="" style="endArrow=diamondThin;endFill=0;endSize=24;html=1;rounded=0;edgeStyle=orthogonalEdgeStyle;" parent="1" source="DHmZTs1CuRAezg29g5oL-26" target="DHmZTs1CuRAezg29g5oL-22" edge="1">
          <mxGeometry width="160" relative="1" as="geometry">
            <mxPoint x="-1814" y="2085.003333333333" as="sourcePoint" />
            <mxPoint x="-1604" y="2050.003333333333" as="targetPoint" />
            <Array as="points">
              <mxPoint x="-1320" y="2290" />
              <mxPoint x="-1320" y="2290" />
            </Array>
          </mxGeometry>
        </mxCell>
        <mxCell id="DHmZTs1CuRAezg29g5oL-37" value="" style="endArrow=open;endSize=12;dashed=1;html=1;rounded=0;" parent="1" source="DHmZTs1CuRAezg29g5oL-28" target="DHmZTs1CuRAezg29g5oL-22" edge="1">
          <mxGeometry width="160" relative="1" as="geometry">
            <mxPoint x="-790" y="2320" as="sourcePoint" />
            <mxPoint x="-630" y="2320" as="targetPoint" />
            <mxPoint as="offset" />
          </mxGeometry>
        </mxCell>
        <mxCell id="DHmZTs1CuRAezg29g5oL-48" value="&lt;p style=&quot;margin:0px;margin-top:4px;text-align:center;&quot;&gt;&lt;i&gt;&amp;lt;&amp;lt;Entity&amp;gt;&amp;gt;&lt;/i&gt;&lt;br&gt;&lt;b&gt;Заключение&lt;/b&gt;&lt;/p&gt;&lt;hr size=&quot;1&quot; style=&quot;border-style:solid;&quot;&gt;&lt;p style=&quot;margin:0px;margin-left:4px;&quot;&gt;- наименование: String&lt;/p&gt;&lt;p style=&quot;margin:0px;margin-left:4px;&quot;&gt;- тип: String&lt;/p&gt;&lt;hr size=&quot;1&quot; style=&quot;border-style:solid;&quot;&gt;&lt;p style=&quot;margin:0px;margin-left:4px;&quot;&gt;+ Получить данные(): String[]&lt;/p&gt;" style="verticalAlign=top;align=left;overflow=fill;html=1;whiteSpace=wrap;" parent="1" vertex="1">
          <mxGeometry x="-230" y="2070" width="200" height="120" as="geometry" />
        </mxCell>
        <mxCell id="DHmZTs1CuRAezg29g5oL-49" value="&lt;p style=&quot;margin:0px;margin-top:4px;text-align:center;&quot;&gt;&lt;i&gt;&amp;lt;&amp;lt;Entity&amp;gt;&amp;gt;&lt;/i&gt;&lt;br&gt;&lt;b&gt;Рецепт&lt;/b&gt;&lt;/p&gt;&lt;hr size=&quot;1&quot; style=&quot;border-style:solid;&quot;&gt;&lt;p style=&quot;margin:0px;margin-left:4px;&quot;&gt;- наименование: String&lt;/p&gt;&lt;p style=&quot;margin:0px;margin-left:4px;&quot;&gt;- тип: String&lt;/p&gt;&lt;hr size=&quot;1&quot; style=&quot;border-style:solid;&quot;&gt;&lt;p style=&quot;margin:0px;margin-left:4px;&quot;&gt;+ Получить данные(): String[]&lt;/p&gt;" style="verticalAlign=top;align=left;overflow=fill;html=1;whiteSpace=wrap;" parent="1" vertex="1">
          <mxGeometry x="-230" y="2270" width="200" height="120" as="geometry" />
        </mxCell>
        <mxCell id="DHmZTs1CuRAezg29g5oL-52" value="" style="endArrow=none;html=1;rounded=0;" parent="1" source="DHmZTs1CuRAezg29g5oL-22" target="DHmZTs1CuRAezg29g5oL-23" edge="1">
          <mxGeometry width="50" height="50" relative="1" as="geometry">
            <mxPoint x="-740" y="2410" as="sourcePoint" />
            <mxPoint x="-690" y="2360" as="targetPoint" />
          </mxGeometry>
        </mxCell>
        <mxCell id="DHmZTs1CuRAezg29g5oL-70" value="" style="endArrow=none;html=1;rounded=0;edgeStyle=orthogonalEdgeStyle;" parent="1" source="DHmZTs1CuRAezg29g5oL-24" target="DHmZTs1CuRAezg29g5oL-22" edge="1">
          <mxGeometry width="50" height="50" relative="1" as="geometry">
            <mxPoint x="-1435" y="2400" as="sourcePoint" />
            <mxPoint x="-1385" y="2350" as="targetPoint" />
            <Array as="points">
              <mxPoint x="-1330" y="2830" />
              <mxPoint x="-1330" y="2350" />
            </Array>
          </mxGeometry>
        </mxCell>
        <mxCell id="DHmZTs1CuRAezg29g5oL-72" value="" style="endArrow=diamondThin;endFill=0;endSize=24;html=1;rounded=0;edgeStyle=orthogonalEdgeStyle;" parent="1" source="DHmZTs1CuRAezg29g5oL-33" target="DHmZTs1CuRAezg29g5oL-22" edge="1">
          <mxGeometry width="160" relative="1" as="geometry">
            <mxPoint x="-1370" y="1992" as="sourcePoint" />
            <mxPoint x="-1220" y="1990" as="targetPoint" />
            <Array as="points">
              <mxPoint x="-1310" y="2130" />
              <mxPoint x="-1310" y="2130" />
            </Array>
          </mxGeometry>
        </mxCell>
        <mxCell id="DHmZTs1CuRAezg29g5oL-73" value="&lt;p style=&quot;margin:0px;margin-top:4px;text-align:center;&quot;&gt;&lt;i&gt;&amp;lt;&amp;lt;Entity&amp;gt;&amp;gt;&lt;/i&gt;&lt;br&gt;&lt;b&gt;Регистратурный отчет&lt;/b&gt;&lt;/p&gt;&lt;hr size=&quot;1&quot; style=&quot;border-style:solid;&quot;&gt;&lt;p style=&quot;margin:0px;margin-left:4px;&quot;&gt;- наименование: String&lt;/p&gt;&lt;p style=&quot;margin:0px;margin-left:4px;&quot;&gt;- тип: String&lt;/p&gt;&lt;hr size=&quot;1&quot; style=&quot;border-style:solid;&quot;&gt;&lt;p style=&quot;margin:0px;margin-left:4px;&quot;&gt;+ Получить данные(): String[]&lt;/p&gt;" style="verticalAlign=top;align=left;overflow=fill;html=1;whiteSpace=wrap;" parent="1" vertex="1">
          <mxGeometry x="-230" y="2609" width="200" height="120" as="geometry" />
        </mxCell>
        <mxCell id="DHmZTs1CuRAezg29g5oL-75" value="" style="endArrow=diamondThin;endFill=0;endSize=24;html=1;rounded=0;edgeStyle=orthogonalEdgeStyle;" parent="1" source="DHmZTs1CuRAezg29g5oL-25" target="DHmZTs1CuRAezg29g5oL-22" edge="1">
          <mxGeometry width="160" relative="1" as="geometry">
            <mxPoint x="-1370" y="2112" as="sourcePoint" />
            <mxPoint x="-1220" y="2110" as="targetPoint" />
          </mxGeometry>
        </mxCell>
        <mxCell id="DHmZTs1CuRAezg29g5oL-76" value="" style="endArrow=none;html=1;rounded=0;" parent="1" source="DHmZTs1CuRAezg29g5oL-23" target="DHmZTs1CuRAezg29g5oL-24" edge="1">
          <mxGeometry width="50" height="50" relative="1" as="geometry">
            <mxPoint x="-1030.62" y="2710" as="sourcePoint" />
            <mxPoint x="-1030.62" y="2790" as="targetPoint" />
          </mxGeometry>
        </mxCell>
        <mxCell id="DHmZTs1CuRAezg29g5oL-78" value="" style="endArrow=open;endSize=12;dashed=1;html=1;rounded=0;" parent="1" source="DHmZTs1CuRAezg29g5oL-27" target="DHmZTs1CuRAezg29g5oL-24" edge="1">
          <mxGeometry width="160" relative="1" as="geometry">
            <mxPoint x="-736" y="2750" as="sourcePoint" />
            <mxPoint x="-816" y="2750" as="targetPoint" />
            <mxPoint as="offset" />
          </mxGeometry>
        </mxCell>
        <mxCell id="DHmZTs1CuRAezg29g5oL-79" value="" style="endArrow=open;endSize=12;dashed=1;html=1;rounded=0;edgeStyle=orthogonalEdgeStyle;" parent="1" source="DHmZTs1CuRAezg29g5oL-32" target="DHmZTs1CuRAezg29g5oL-28" edge="1">
          <mxGeometry width="160" relative="1" as="geometry">
            <mxPoint x="-250" y="2100" as="sourcePoint" />
            <mxPoint x="-330" y="2100" as="targetPoint" />
            <mxPoint as="offset" />
            <Array as="points">
              <mxPoint x="-310" y="1930" />
              <mxPoint x="-310" y="2230" />
            </Array>
          </mxGeometry>
        </mxCell>
        <mxCell id="DHmZTs1CuRAezg29g5oL-80" value="" style="endArrow=open;endSize=12;dashed=1;html=1;rounded=0;edgeStyle=orthogonalEdgeStyle;" parent="1" source="DHmZTs1CuRAezg29g5oL-48" target="DHmZTs1CuRAezg29g5oL-28" edge="1">
          <mxGeometry width="160" relative="1" as="geometry">
            <mxPoint x="-230" y="2110" as="sourcePoint" />
            <mxPoint x="-350" y="2410" as="targetPoint" />
            <mxPoint as="offset" />
            <Array as="points">
              <mxPoint x="-310" y="2130" />
              <mxPoint x="-310" y="2230" />
            </Array>
          </mxGeometry>
        </mxCell>
        <mxCell id="DHmZTs1CuRAezg29g5oL-82" value="" style="endArrow=open;endSize=12;dashed=1;html=1;rounded=0;edgeStyle=orthogonalEdgeStyle;" parent="1" source="DHmZTs1CuRAezg29g5oL-49" target="DHmZTs1CuRAezg29g5oL-28" edge="1">
          <mxGeometry width="160" relative="1" as="geometry">
            <mxPoint x="-220" y="2120" as="sourcePoint" />
            <mxPoint x="-340" y="2240" as="targetPoint" />
            <mxPoint as="offset" />
            <Array as="points">
              <mxPoint x="-290" y="2330" />
              <mxPoint x="-290" y="2230" />
            </Array>
          </mxGeometry>
        </mxCell>
        <mxCell id="DHmZTs1CuRAezg29g5oL-83" value="" style="endArrow=open;endSize=12;dashed=1;html=1;rounded=0;edgeStyle=orthogonalEdgeStyle;" parent="1" source="DHmZTs1CuRAezg29g5oL-73" target="DHmZTs1CuRAezg29g5oL-27" edge="1">
          <mxGeometry width="160" relative="1" as="geometry">
            <mxPoint x="-220" y="2340" as="sourcePoint" />
            <mxPoint x="-340" y="2240" as="targetPoint" />
            <mxPoint as="offset" />
            <Array as="points">
              <mxPoint x="-130" y="2870" />
            </Array>
          </mxGeometry>
        </mxCell>
        <mxCell id="DHmZTs1CuRAezg29g5oL-85" value="" style="endArrow=diamondThin;endFill=0;endSize=24;html=1;rounded=0;edgeStyle=orthogonalEdgeStyle;" parent="1" source="DHmZTs1CuRAezg29g5oL-32" target="DHmZTs1CuRAezg29g5oL-23" edge="1">
          <mxGeometry width="160" relative="1" as="geometry">
            <mxPoint x="200" y="2200" as="sourcePoint" />
            <mxPoint x="360" y="2200" as="targetPoint" />
            <Array as="points">
              <mxPoint x="50" y="1930" />
              <mxPoint x="50" y="2590" />
            </Array>
          </mxGeometry>
        </mxCell>
        <mxCell id="DHmZTs1CuRAezg29g5oL-86" value="" style="endArrow=diamondThin;endFill=0;endSize=24;html=1;rounded=0;edgeStyle=orthogonalEdgeStyle;" parent="1" source="DHmZTs1CuRAezg29g5oL-48" target="DHmZTs1CuRAezg29g5oL-23" edge="1">
          <mxGeometry width="160" relative="1" as="geometry">
            <mxPoint x="-20" y="1940" as="sourcePoint" />
            <mxPoint x="-840" y="2600" as="targetPoint" />
            <Array as="points">
              <mxPoint x="50" y="2130" />
              <mxPoint x="50" y="2590" />
            </Array>
          </mxGeometry>
        </mxCell>
        <mxCell id="DHmZTs1CuRAezg29g5oL-87" value="" style="endArrow=diamondThin;endFill=0;endSize=24;html=1;rounded=0;edgeStyle=orthogonalEdgeStyle;" parent="1" source="DHmZTs1CuRAezg29g5oL-49" target="DHmZTs1CuRAezg29g5oL-23" edge="1">
          <mxGeometry width="160" relative="1" as="geometry">
            <mxPoint x="-20" y="2140" as="sourcePoint" />
            <mxPoint x="-840" y="2600" as="targetPoint" />
            <Array as="points">
              <mxPoint x="50" y="2330" />
              <mxPoint x="50" y="2590" />
            </Array>
          </mxGeometry>
        </mxCell>
        <mxCell id="DHmZTs1CuRAezg29g5oL-88" value="" style="endArrow=diamondThin;endFill=0;endSize=24;html=1;rounded=0;edgeStyle=orthogonalEdgeStyle;" parent="1" source="DHmZTs1CuRAezg29g5oL-32" target="DHmZTs1CuRAezg29g5oL-31" edge="1">
          <mxGeometry width="160" relative="1" as="geometry">
            <mxPoint x="-20" y="2340" as="sourcePoint" />
            <mxPoint x="-840" y="2600" as="targetPoint" />
            <Array as="points">
              <mxPoint x="90" y="1920" />
              <mxPoint x="90" y="2320" />
            </Array>
          </mxGeometry>
        </mxCell>
        <mxCell id="DHmZTs1CuRAezg29g5oL-89" value="" style="endArrow=diamondThin;endFill=0;endSize=24;html=1;rounded=0;edgeStyle=orthogonalEdgeStyle;" parent="1" source="DHmZTs1CuRAezg29g5oL-48" target="DHmZTs1CuRAezg29g5oL-31" edge="1">
          <mxGeometry width="160" relative="1" as="geometry">
            <mxPoint x="-20" y="1930" as="sourcePoint" />
            <mxPoint x="180" y="2340" as="targetPoint" />
            <Array as="points">
              <mxPoint x="90" y="2120" />
              <mxPoint x="90" y="2320" />
            </Array>
          </mxGeometry>
        </mxCell>
        <mxCell id="DHmZTs1CuRAezg29g5oL-90" value="" style="endArrow=diamondThin;endFill=0;endSize=24;html=1;rounded=0;edgeStyle=orthogonalEdgeStyle;" parent="1" source="DHmZTs1CuRAezg29g5oL-49" target="DHmZTs1CuRAezg29g5oL-31" edge="1">
          <mxGeometry width="160" relative="1" as="geometry">
            <mxPoint x="-20" y="2130" as="sourcePoint" />
            <mxPoint x="180" y="2340" as="targetPoint" />
            <Array as="points">
              <mxPoint x="120" y="2320" />
              <mxPoint x="120" y="2320" />
            </Array>
          </mxGeometry>
        </mxCell>
        <mxCell id="DHmZTs1CuRAezg29g5oL-91" value="" style="endArrow=diamondThin;endFill=0;endSize=24;html=1;rounded=0;edgeStyle=orthogonalEdgeStyle;" parent="1" source="DHmZTs1CuRAezg29g5oL-73" target="DHmZTs1CuRAezg29g5oL-31" edge="1">
          <mxGeometry width="160" relative="1" as="geometry">
            <mxPoint x="-20" y="2330" as="sourcePoint" />
            <mxPoint x="180" y="2330" as="targetPoint" />
            <Array as="points">
              <mxPoint x="90" y="2669" />
              <mxPoint x="90" y="2340" />
            </Array>
          </mxGeometry>
        </mxCell>
        <mxCell id="DHmZTs1CuRAezg29g5oL-92" value="" style="endArrow=open;endSize=12;dashed=1;html=1;rounded=0;" parent="1" edge="1">
          <mxGeometry width="160" relative="1" as="geometry">
            <mxPoint x="-220" y="2910" as="sourcePoint" />
            <mxPoint x="170" y="2910" as="targetPoint" />
            <mxPoint as="offset" />
          </mxGeometry>
        </mxCell>
        <mxCell id="DHmZTs1CuRAezg29g5oL-93" value="" style="endArrow=diamondThin;endFill=0;endSize=24;html=1;rounded=0;edgeStyle=orthogonalEdgeStyle;" parent="1" source="DHmZTs1CuRAezg29g5oL-25" target="DHmZTs1CuRAezg29g5oL-29" edge="1">
          <mxGeometry width="160" relative="1" as="geometry">
            <mxPoint x="-660" y="1920" as="sourcePoint" />
            <mxPoint x="-660" y="2000" as="targetPoint" />
            <Array as="points">
              <mxPoint x="-1030" y="1790" />
              <mxPoint x="570" y="1790" />
              <mxPoint x="570" y="2869" />
            </Array>
          </mxGeometry>
        </mxCell>
        <mxCell id="DHmZTs1CuRAezg29g5oL-95" value="&lt;h1 style=&quot;margin-top: 0px;&quot;&gt;Диаграмма&lt;/h1&gt;&lt;h1 style=&quot;margin-top: 0px;&quot;&gt;классов (ведение пациента)&lt;/h1&gt;" style="text;html=1;whiteSpace=wrap;overflow=hidden;rounded=0;" parent="1" vertex="1">
          <mxGeometry x="-1600" y="1640" width="650" height="90" as="geometry" />
        </mxCell>
        <mxCell id="0UiTAvG5i1j57kaQnPV8-3" value="" style="ellipse;html=1;shape=startState;fillColor=#000000;strokeColor=#000000;" parent="1" vertex="1">
          <mxGeometry x="-760" y="3210" width="40" height="40" as="geometry" />
        </mxCell>
        <mxCell id="0UiTAvG5i1j57kaQnPV8-4" value="" style="edgeStyle=orthogonalEdgeStyle;html=1;verticalAlign=bottom;endArrow=open;endSize=8;strokeColor=#000000;rounded=0;" parent="1" source="0UiTAvG5i1j57kaQnPV8-3" edge="1">
          <mxGeometry relative="1" as="geometry">
            <mxPoint x="-740" y="3330" as="targetPoint" />
          </mxGeometry>
        </mxCell>
        <mxCell id="0UiTAvG5i1j57kaQnPV8-11" value="Печать формы для регистрации" style="html=1;align=center;verticalAlign=top;rounded=1;absoluteArcSize=1;arcSize=10;dashed=0;whiteSpace=wrap;" parent="1" vertex="1">
          <mxGeometry x="-725" y="3650" width="120" height="40" as="geometry" />
        </mxCell>
        <mxCell id="0UiTAvG5i1j57kaQnPV8-16" value="Печать бланка согласия на медицинское обслуживание&amp;nbsp;" style="html=1;align=center;verticalAlign=top;rounded=1;absoluteArcSize=1;arcSize=10;dashed=0;whiteSpace=wrap;" parent="1" vertex="1">
          <mxGeometry x="-974" y="4460" width="170" height="50" as="geometry" />
        </mxCell>
        <mxCell id="0UiTAvG5i1j57kaQnPV8-24" value="&lt;p style=&quot;margin:0px;margin-top:4px;text-align:center;&quot;&gt;Ожидание&lt;/p&gt;&lt;hr&gt;&lt;p&gt;&lt;/p&gt;&lt;p style=&quot;margin:0px;margin-left:8px;text-align:left;&quot;&gt;вход / подготовка системы для работы&lt;br&gt;выход / обработка запроса пациента&lt;/p&gt;" style="shape=mxgraph.sysml.simpleState;html=1;overflow=fill;whiteSpace=wrap;align=center;" parent="1" vertex="1">
          <mxGeometry x="-866.5" y="3330" width="253" height="80" as="geometry" />
        </mxCell>
        <mxCell id="0UiTAvG5i1j57kaQnPV8-25" value="Начало работы системы" style="text;html=1;align=center;verticalAlign=middle;whiteSpace=wrap;rounded=0;horizontal=1;" parent="1" vertex="1">
          <mxGeometry x="-720" y="3260" width="140" height="30" as="geometry" />
        </mxCell>
        <mxCell id="0UiTAvG5i1j57kaQnPV8-27" value="&lt;p style=&quot;margin:0px;margin-top:4px;text-align:center;&quot;&gt;Обработка согласия&lt;/p&gt;&lt;hr&gt;&lt;p&gt;&lt;/p&gt;&lt;p style=&quot;margin:0px;margin-left:8px;text-align:left;&quot;&gt;вход / подключение к файловому хранилищу&lt;br&gt;выход / отправка согласия&lt;/p&gt;" style="shape=mxgraph.sysml.simpleState;html=1;overflow=fill;whiteSpace=wrap;align=center;" parent="1" vertex="1">
          <mxGeometry x="-455" y="4450" width="275" height="75" as="geometry" />
        </mxCell>
        <mxCell id="0UiTAvG5i1j57kaQnPV8-28" value="Регистрация пациента в системе" style="text;html=1;align=center;verticalAlign=middle;whiteSpace=wrap;rounded=0;horizontal=1;" parent="1" vertex="1">
          <mxGeometry x="-950" y="3420" width="191" height="20" as="geometry" />
        </mxCell>
        <mxCell id="0UiTAvG5i1j57kaQnPV8-30" value="[ Пациент не зарегистрирован ]" style="text;html=1;align=center;verticalAlign=middle;whiteSpace=wrap;rounded=0;horizontal=1;" parent="1" vertex="1">
          <mxGeometry x="-740" y="3420" width="180" height="20" as="geometry" />
        </mxCell>
        <mxCell id="0UiTAvG5i1j57kaQnPV8-31" value="Пациент заполняет форму своими данными" style="text;html=1;align=center;verticalAlign=middle;whiteSpace=wrap;rounded=0;horizontal=1;" parent="1" vertex="1">
          <mxGeometry x="-923" y="3710" width="250" height="20" as="geometry" />
        </mxCell>
        <mxCell id="0UiTAvG5i1j57kaQnPV8-33" value="&lt;p style=&quot;margin:0px;margin-top:4px;text-align:center;&quot;&gt;Внесение данных&lt;/p&gt;&lt;hr&gt;&lt;p&gt;&lt;/p&gt;&lt;p style=&quot;margin:0px;margin-left:8px;text-align:left;&quot;&gt;делать / перенос данных из формы в систему&lt;br&gt;выход / проверка данных&lt;/p&gt;" style="shape=mxgraph.sysml.simpleState;html=1;overflow=fill;whiteSpace=wrap;align=center;" parent="1" vertex="1">
          <mxGeometry x="-805" y="3760" width="280" height="80" as="geometry" />
        </mxCell>
        <mxCell id="0UiTAvG5i1j57kaQnPV8-34" value="" style="endArrow=classic;html=1;rounded=0;" parent="1" source="0UiTAvG5i1j57kaQnPV8-11" target="0UiTAvG5i1j57kaQnPV8-33" edge="1">
          <mxGeometry width="50" height="50" relative="1" as="geometry">
            <mxPoint x="-635" y="3750" as="sourcePoint" />
            <mxPoint x="-585" y="3700" as="targetPoint" />
          </mxGeometry>
        </mxCell>
        <mxCell id="0UiTAvG5i1j57kaQnPV8-35" value="[ Пациент дал согласие на обработку&amp;nbsp;&lt;span style=&quot;background-color: initial;&quot;&gt;данных ]&lt;/span&gt;" style="text;html=1;align=center;verticalAlign=middle;whiteSpace=wrap;rounded=0;horizontal=1;" parent="1" vertex="1">
          <mxGeometry x="-930.5" y="3727" width="265" height="20" as="geometry" />
        </mxCell>
        <mxCell id="0UiTAvG5i1j57kaQnPV8-36" value="" style="endArrow=classic;html=1;rounded=0;" parent="1" edge="1">
          <mxGeometry width="50" height="50" relative="1" as="geometry">
            <mxPoint x="-665" y="3650" as="sourcePoint" />
            <mxPoint x="-665" y="3590" as="targetPoint" />
          </mxGeometry>
        </mxCell>
        <mxCell id="0UiTAvG5i1j57kaQnPV8-37" value="Отказ в обслуживании" style="text;html=1;align=center;verticalAlign=middle;whiteSpace=wrap;rounded=0;horizontal=1;" parent="1" vertex="1">
          <mxGeometry x="-873.1300000000001" y="3595" width="131.25" height="20" as="geometry" />
        </mxCell>
        <mxCell id="0UiTAvG5i1j57kaQnPV8-38" value="[ Пациент не дал согласие на обработку&amp;nbsp;&lt;span style=&quot;background-color: initial;&quot;&gt;данных ]&lt;/span&gt;" style="text;html=1;align=center;verticalAlign=middle;whiteSpace=wrap;rounded=0;horizontal=1;" parent="1" vertex="1">
          <mxGeometry x="-950" y="3610" width="285" height="20" as="geometry" />
        </mxCell>
        <mxCell id="0UiTAvG5i1j57kaQnPV8-41" value="Отказ" style="html=1;align=center;verticalAlign=top;rounded=1;absoluteArcSize=1;arcSize=10;dashed=0;whiteSpace=wrap;" parent="1" vertex="1">
          <mxGeometry x="-706" y="3550" width="80" height="40" as="geometry" />
        </mxCell>
        <mxCell id="0UiTAvG5i1j57kaQnPV8-43" value="&lt;p style=&quot;margin: 4px 0px 0px; text-align: center;&quot;&gt;Отправка данных&lt;/p&gt;&lt;hr&gt;&lt;p&gt;&lt;/p&gt;&lt;p style=&quot;margin:0px;margin-left:8px;text-align:left;&quot;&gt;вход / подключение к реестру&lt;br&gt;делать / упаковка данных&lt;br&gt;выход / отправка данных в реестр&lt;/p&gt;" style="shape=mxgraph.sysml.simpleState;html=1;overflow=fill;whiteSpace=wrap;align=center;" parent="1" vertex="1">
          <mxGeometry x="-785.3699999999999" y="3910" width="238.75" height="90" as="geometry" />
        </mxCell>
        <mxCell id="0UiTAvG5i1j57kaQnPV8-44" value="" style="endArrow=classic;html=1;rounded=0;" parent="1" source="0UiTAvG5i1j57kaQnPV8-33" target="0UiTAvG5i1j57kaQnPV8-43" edge="1">
          <mxGeometry width="50" height="50" relative="1" as="geometry">
            <mxPoint x="-715" y="3850" as="sourcePoint" />
            <mxPoint x="-715" y="3920" as="targetPoint" />
          </mxGeometry>
        </mxCell>
        <mxCell id="0UiTAvG5i1j57kaQnPV8-47" value="" style="ellipse;html=1;shape=startState;fillColor=#000000;strokeColor=#000000;" parent="1" vertex="1">
          <mxGeometry x="-942.5" y="3650" width="40" height="40" as="geometry" />
        </mxCell>
        <mxCell id="0UiTAvG5i1j57kaQnPV8-48" value="" style="edgeStyle=orthogonalEdgeStyle;html=1;verticalAlign=bottom;endArrow=open;endSize=8;strokeColor=#000000;rounded=0;" parent="1" source="0UiTAvG5i1j57kaQnPV8-47" target="0UiTAvG5i1j57kaQnPV8-11" edge="1">
          <mxGeometry relative="1" as="geometry">
            <mxPoint x="-805" y="3708" as="targetPoint" />
            <mxPoint x="-805" y="3628" as="sourcePoint" />
          </mxGeometry>
        </mxCell>
        <mxCell id="0UiTAvG5i1j57kaQnPV8-49" value="" style="shape=mxgraph.sysml.actFinal;html=1;verticalLabelPosition=bottom;labelBackgroundColor=#ffffff;verticalAlign=top;" parent="1" vertex="1">
          <mxGeometry x="-555" y="3550" width="40" height="40" as="geometry" />
        </mxCell>
        <mxCell id="0UiTAvG5i1j57kaQnPV8-50" value="" style="edgeStyle=orthogonalEdgeStyle;html=1;verticalAlign=bottom;endArrow=open;endSize=8;strokeColor=#000000;rounded=0;" parent="1" source="0UiTAvG5i1j57kaQnPV8-41" target="0UiTAvG5i1j57kaQnPV8-49" edge="1">
          <mxGeometry relative="1" as="geometry">
            <mxPoint x="-408" y="3640" as="targetPoint" />
            <mxPoint x="-585" y="3640" as="sourcePoint" />
          </mxGeometry>
        </mxCell>
        <mxCell id="0UiTAvG5i1j57kaQnPV8-51" value="" style="shape=mxgraph.sysml.actFinal;html=1;verticalLabelPosition=bottom;labelBackgroundColor=#ffffff;verticalAlign=top;" parent="1" vertex="1">
          <mxGeometry x="-685" y="4070" width="40" height="40" as="geometry" />
        </mxCell>
        <mxCell id="0UiTAvG5i1j57kaQnPV8-52" value="" style="endArrow=classic;html=1;rounded=0;startSize=1;" parent="1" target="0UiTAvG5i1j57kaQnPV8-51" edge="1">
          <mxGeometry width="50" height="50" relative="1" as="geometry">
            <mxPoint x="-665.5" y="4000" as="sourcePoint" />
            <mxPoint x="-666.5" y="4070" as="targetPoint" />
          </mxGeometry>
        </mxCell>
        <mxCell id="0UiTAvG5i1j57kaQnPV8-57" value="[ Данные прошли проверку ]" style="text;html=1;align=center;verticalAlign=middle;whiteSpace=wrap;rounded=0;horizontal=1;" parent="1" vertex="1">
          <mxGeometry x="-835" y="3861" width="169.5" height="20" as="geometry" />
        </mxCell>
        <mxCell id="0UiTAvG5i1j57kaQnPV8-58" value="[ Отправка прошла успешно ]" style="text;html=1;align=center;verticalAlign=middle;whiteSpace=wrap;rounded=0;horizontal=1;" parent="1" vertex="1">
          <mxGeometry x="-845" y="4022" width="180" height="20" as="geometry" />
        </mxCell>
        <mxCell id="0UiTAvG5i1j57kaQnPV8-61" value="" style="shape=ellipse;html=1;fillColor=strokeColor;fontSize=18;fontColor=#ffffff;" parent="1" vertex="1">
          <mxGeometry x="-909" y="4340" width="40" height="40" as="geometry" />
        </mxCell>
        <mxCell id="0UiTAvG5i1j57kaQnPV8-64" value="" style="edgeStyle=orthogonalEdgeStyle;html=1;verticalAlign=bottom;endArrow=open;endSize=8;strokeColor=#000000;rounded=0;" parent="1" source="0UiTAvG5i1j57kaQnPV8-61" target="0UiTAvG5i1j57kaQnPV8-16" edge="1">
          <mxGeometry relative="1" as="geometry">
            <mxPoint x="-1011.8199999999997" y="4440" as="targetPoint" />
            <mxPoint x="-1011.8199999999997" y="4360" as="sourcePoint" />
          </mxGeometry>
        </mxCell>
        <mxCell id="0UiTAvG5i1j57kaQnPV8-65" value="[ Пациент найден в реестре ]" style="text;html=1;align=center;verticalAlign=middle;whiteSpace=wrap;rounded=0;horizontal=1;" parent="1" vertex="1">
          <mxGeometry x="-890" y="4400" width="180" height="20" as="geometry" />
        </mxCell>
        <mxCell id="0UiTAvG5i1j57kaQnPV8-66" value="Отказ" style="html=1;align=center;verticalAlign=top;rounded=1;absoluteArcSize=1;arcSize=10;dashed=0;whiteSpace=wrap;" parent="1" vertex="1">
          <mxGeometry x="-920" y="4590" width="60" height="30" as="geometry" />
        </mxCell>
        <mxCell id="0UiTAvG5i1j57kaQnPV8-67" value="&lt;p style=&quot;margin:0px;margin-top:4px;text-align:center;&quot;&gt;Запись на прием&lt;/p&gt;&lt;hr&gt;&lt;p&gt;&lt;/p&gt;&lt;p style=&quot;margin:0px;margin-left:8px;text-align:left;&quot;&gt;вход / выбор времени, даты и специалиста&lt;br&gt;делать / внесение изменений в расписание&lt;/p&gt;&lt;p style=&quot;margin:0px;margin-left:8px;text-align:left;&quot;&gt;выход / обновление расписания&lt;/p&gt;" style="shape=mxgraph.sysml.simpleState;html=1;overflow=fill;whiteSpace=wrap;align=center;" parent="1" vertex="1">
          <mxGeometry x="-455" y="4605" width="275" height="90" as="geometry" />
        </mxCell>
        <mxCell id="0UiTAvG5i1j57kaQnPV8-68" value="" style="ellipse;html=1;shape=endState;fillColor=strokeColor;" parent="1" vertex="1">
          <mxGeometry x="-1040" y="4585" width="40" height="40" as="geometry" />
        </mxCell>
        <mxCell id="0UiTAvG5i1j57kaQnPV8-69" value="" style="ellipse;html=1;shape=endState;fillColor=strokeColor;" parent="1" vertex="1">
          <mxGeometry x="-337.5" y="4775" width="40" height="40" as="geometry" />
        </mxCell>
        <mxCell id="0UiTAvG5i1j57kaQnPV8-70" value="" style="endArrow=classic;html=1;rounded=0;" parent="1" edge="1">
          <mxGeometry width="50" height="50" relative="1" as="geometry">
            <mxPoint x="-920" y="4604.78" as="sourcePoint" />
            <mxPoint x="-1000" y="4604.78" as="targetPoint" />
          </mxGeometry>
        </mxCell>
        <mxCell id="0UiTAvG5i1j57kaQnPV8-71" value="" style="endArrow=classic;html=1;rounded=0;" parent="1" edge="1">
          <mxGeometry width="50" height="50" relative="1" as="geometry">
            <mxPoint x="-890" y="4510" as="sourcePoint" />
            <mxPoint x="-890" y="4590" as="targetPoint" />
          </mxGeometry>
        </mxCell>
        <mxCell id="0UiTAvG5i1j57kaQnPV8-72" value="Отказ в обслуживании" style="text;html=1;align=center;verticalAlign=middle;whiteSpace=wrap;rounded=0;horizontal=1;" parent="1" vertex="1">
          <mxGeometry x="-1125.63" y="4531" width="131.25" height="20" as="geometry" />
        </mxCell>
        <mxCell id="0UiTAvG5i1j57kaQnPV8-73" value="[ Пациент не дал согласие на медицинское обслуживание&lt;span style=&quot;background-color: initial;&quot;&gt;&amp;nbsp;]&lt;/span&gt;" style="text;html=1;align=center;verticalAlign=middle;whiteSpace=wrap;rounded=0;horizontal=1;" parent="1" vertex="1">
          <mxGeometry x="-1230" y="4550" width="340" height="20" as="geometry" />
        </mxCell>
        <mxCell id="0UiTAvG5i1j57kaQnPV8-75" value="[ Пациент дал согласие на медицинское обслуживание&lt;span style=&quot;background-color: initial;&quot;&gt;&amp;nbsp;]&lt;/span&gt;" style="text;html=1;align=center;verticalAlign=middle;whiteSpace=wrap;rounded=0;horizontal=1;" parent="1" vertex="1">
          <mxGeometry x="-791" y="4486" width="325" height="20" as="geometry" />
        </mxCell>
        <mxCell id="0UiTAvG5i1j57kaQnPV8-76" value="" style="endArrow=classic;html=1;rounded=0;" parent="1" source="0UiTAvG5i1j57kaQnPV8-16" target="0UiTAvG5i1j57kaQnPV8-27" edge="1">
          <mxGeometry width="50" height="50" relative="1" as="geometry">
            <mxPoint x="-750" y="4520" as="sourcePoint" />
            <mxPoint x="-750" y="4600" as="targetPoint" />
          </mxGeometry>
        </mxCell>
        <mxCell id="0UiTAvG5i1j57kaQnPV8-77" value="" style="endArrow=classic;html=1;rounded=0;" parent="1" edge="1">
          <mxGeometry width="50" height="50" relative="1" as="geometry">
            <mxPoint x="-317.84000000000015" y="4525" as="sourcePoint" />
            <mxPoint x="-317.84000000000015" y="4605" as="targetPoint" />
          </mxGeometry>
        </mxCell>
        <mxCell id="0UiTAvG5i1j57kaQnPV8-78" value="Работа с запросом клиента" style="text;html=1;align=center;verticalAlign=middle;whiteSpace=wrap;rounded=0;horizontal=1;" parent="1" vertex="1">
          <mxGeometry x="-317.5" y="4549" width="157.5" height="20" as="geometry" />
        </mxCell>
        <mxCell id="0UiTAvG5i1j57kaQnPV8-79" value="" style="endArrow=classic;html=1;rounded=0;" parent="1" edge="1">
          <mxGeometry width="50" height="50" relative="1" as="geometry">
            <mxPoint x="-317.5" y="4695" as="sourcePoint" />
            <mxPoint x="-317.5" y="4775" as="targetPoint" />
          </mxGeometry>
        </mxCell>
        <mxCell id="0UiTAvG5i1j57kaQnPV8-81" value="Завершение записи пациента" style="text;html=1;align=center;verticalAlign=middle;whiteSpace=wrap;rounded=0;horizontal=1;" parent="1" vertex="1">
          <mxGeometry x="-317.5" y="4720" width="177.5" height="20" as="geometry" />
        </mxCell>
        <mxCell id="0UiTAvG5i1j57kaQnPV8-82" value="" style="endArrow=classic;html=1;rounded=0;edgeStyle=orthogonalEdgeStyle;entryX=0;entryY=0;entryDx=70;entryDy=0;entryPerimeter=0;" parent="1" source="0UiTAvG5i1j57kaQnPV8-24" target="0UiTAvG5i1j57kaQnPV8-60" edge="1">
          <mxGeometry width="50" height="50" relative="1" as="geometry">
            <mxPoint x="-186.5" y="3349.05" as="sourcePoint" />
            <mxPoint x="-400" y="3349.05" as="targetPoint" />
            <Array as="points">
              <mxPoint x="-360" y="3370" />
              <mxPoint x="-360" y="4210" />
              <mxPoint x="-1175" y="4210" />
            </Array>
          </mxGeometry>
        </mxCell>
        <mxCell id="0UiTAvG5i1j57kaQnPV8-83" value="Запись пациента на прием" style="text;html=1;align=center;verticalAlign=middle;whiteSpace=wrap;rounded=0;horizontal=1;" parent="1" vertex="1">
          <mxGeometry x="-601" y="3350" width="191" height="20" as="geometry" />
        </mxCell>
        <mxCell id="0UiTAvG5i1j57kaQnPV8-84" value="[ Пациент зарегистрирован ]" style="text;html=1;align=center;verticalAlign=middle;whiteSpace=wrap;rounded=0;horizontal=1;" parent="1" vertex="1">
          <mxGeometry x="-595.5" y="3370" width="180" height="20" as="geometry" />
        </mxCell>
        <mxCell id="0UiTAvG5i1j57kaQnPV8-88" value="" style="ellipse;html=1;shape=endState;fillColor=strokeColor;" parent="1" vertex="1">
          <mxGeometry x="-705" y="5140" width="40" height="40" as="geometry" />
        </mxCell>
        <mxCell id="0UiTAvG5i1j57kaQnPV8-90" value="Переход к записи пациента" style="text;html=1;align=center;verticalAlign=middle;whiteSpace=wrap;rounded=0;horizontal=1;" parent="1" vertex="1">
          <mxGeometry x="-1112.5" y="4170" width="210" height="20" as="geometry" />
        </mxCell>
        <mxCell id="0UiTAvG5i1j57kaQnPV8-91" value="" style="endArrow=classic;html=1;rounded=0;edgeStyle=orthogonalEdgeStyle;exitX=0.5;exitY=1;exitDx=0;exitDy=0;exitPerimeter=0;" parent="1" source="0UiTAvG5i1j57kaQnPV8-60" target="0UiTAvG5i1j57kaQnPV8-88" edge="1">
          <mxGeometry width="50" height="50" relative="1" as="geometry">
            <mxPoint x="447.5" y="4377" as="sourcePoint" />
            <mxPoint x="-725" y="4400" as="targetPoint" />
            <Array as="points">
              <mxPoint x="-685" y="4840" />
              <mxPoint x="-685" y="4840" />
            </Array>
          </mxGeometry>
        </mxCell>
        <mxCell id="0UiTAvG5i1j57kaQnPV8-93" value="Завершение работы системы" style="text;html=1;align=center;verticalAlign=middle;whiteSpace=wrap;rounded=0;horizontal=1;" parent="1" vertex="1">
          <mxGeometry x="-660" y="4960" width="210" height="20" as="geometry" />
        </mxCell>
        <mxCell id="0UiTAvG5i1j57kaQnPV8-98" value="&lt;h1 style=&quot;margin-top: 0px; font-size: 26px;&quot;&gt;Диаграмма состояний (система записи и регистрации клиента)&lt;/h1&gt;" style="text;html=1;whiteSpace=wrap;overflow=hidden;rounded=0;fontSize=26;" parent="1" vertex="1">
          <mxGeometry x="-1600" y="3040" width="1830" height="90" as="geometry" />
        </mxCell>
        <mxCell id="0UiTAvG5i1j57kaQnPV8-115" value="Запрос пациента&lt;div&gt;&lt;span style=&quot;background-color: initial;&quot;&gt;на прием&lt;/span&gt;&lt;/div&gt;" style="rounded=1;whiteSpace=wrap;html=1;" parent="1" vertex="1">
          <mxGeometry x="-1240" y="6620" width="120" height="60" as="geometry" />
        </mxCell>
        <mxCell id="0UiTAvG5i1j57kaQnPV8-116" value="Обсуждение&lt;div&gt;запроса пациента&lt;/div&gt;" style="rounded=1;whiteSpace=wrap;html=1;" parent="1" vertex="1">
          <mxGeometry x="-960" y="6620" width="120" height="60" as="geometry" />
        </mxCell>
        <mxCell id="0UiTAvG5i1j57kaQnPV8-117" value="Проверка наличия данных о пациенте в реестре" style="rounded=1;whiteSpace=wrap;html=1;" parent="1" vertex="1">
          <mxGeometry x="-960" y="6720" width="120" height="60" as="geometry" />
        </mxCell>
        <mxCell id="0UiTAvG5i1j57kaQnPV8-119" value="Заполнение регистрационной формы" style="rounded=1;whiteSpace=wrap;html=1;" parent="1" vertex="1">
          <mxGeometry x="-1240" y="6950" width="120" height="60" as="geometry" />
        </mxCell>
        <mxCell id="0UiTAvG5i1j57kaQnPV8-122" value="Выбор даты, времени и специалиста" style="rounded=1;whiteSpace=wrap;html=1;" parent="1" vertex="1">
          <mxGeometry x="-1240" y="7240" width="120" height="60" as="geometry" />
        </mxCell>
        <mxCell id="0UiTAvG5i1j57kaQnPV8-127" value="Запись пациента на выбранную дату" style="rounded=1;whiteSpace=wrap;html=1;" parent="1" vertex="1">
          <mxGeometry x="-960" y="7340" width="120" height="60" as="geometry" />
        </mxCell>
        <mxCell id="0UiTAvG5i1j57kaQnPV8-128" value="Обновление расписания" style="rounded=1;whiteSpace=wrap;html=1;" parent="1" vertex="1">
          <mxGeometry x="-400" y="7440" width="120" height="60" as="geometry" />
        </mxCell>
        <mxCell id="0UiTAvG5i1j57kaQnPV8-129" value="Получение нового расписания" style="rounded=1;whiteSpace=wrap;html=1;" parent="1" vertex="1">
          <mxGeometry x="-680" y="7440" width="120" height="60" as="geometry" />
        </mxCell>
        <mxCell id="0UiTAvG5i1j57kaQnPV8-130" value="Ввод данных в систему" style="rounded=1;whiteSpace=wrap;html=1;" parent="1" vertex="1">
          <mxGeometry x="-1040" y="7140" width="120" height="60" as="geometry" />
        </mxCell>
        <mxCell id="0UiTAvG5i1j57kaQnPV8-132" value="Пациент" style="swimlane;whiteSpace=wrap;html=1;" parent="1" vertex="1">
          <mxGeometry x="-1400" y="6550" width="320" height="1000" as="geometry" />
        </mxCell>
        <mxCell id="0UiTAvG5i1j57kaQnPV8-112" value="" style="shape=ellipse;html=1;fillColor=strokeColor;strokeWidth=2;verticalLabelPosition=bottom;verticalAlignment=top;perimeter=ellipsePerimeter;" parent="0UiTAvG5i1j57kaQnPV8-132" vertex="1">
          <mxGeometry x="40" y="80" width="40" height="40" as="geometry" />
        </mxCell>
        <mxCell id="0UiTAvG5i1j57kaQnPV8-133" value="Администратор" style="swimlane;whiteSpace=wrap;html=1;" parent="1" vertex="1">
          <mxGeometry x="-1080" y="6550" width="360" height="1000" as="geometry" />
        </mxCell>
        <mxCell id="0UiTAvG5i1j57kaQnPV8-134" value="АРМ Администратора" style="swimlane;whiteSpace=wrap;html=1;startSize=20;" parent="1" vertex="1">
          <mxGeometry x="-720" y="6550" width="270" height="1000" as="geometry" />
        </mxCell>
        <mxCell id="0UiTAvG5i1j57kaQnPV8-135" value="Сервер БД" style="swimlane;whiteSpace=wrap;html=1;" parent="1" vertex="1">
          <mxGeometry x="-450" y="6550" width="240" height="1000" as="geometry" />
        </mxCell>
        <mxCell id="0UiTAvG5i1j57kaQnPV8-137" value="" style="endArrow=classic;html=1;rounded=0;" parent="1" source="0UiTAvG5i1j57kaQnPV8-112" target="0UiTAvG5i1j57kaQnPV8-115" edge="1">
          <mxGeometry width="50" height="50" relative="1" as="geometry">
            <mxPoint x="-1050" y="6790" as="sourcePoint" />
            <mxPoint x="-1000" y="6740" as="targetPoint" />
          </mxGeometry>
        </mxCell>
        <mxCell id="0UiTAvG5i1j57kaQnPV8-138" value="" style="endArrow=classic;html=1;rounded=0;" parent="1" source="0UiTAvG5i1j57kaQnPV8-115" target="0UiTAvG5i1j57kaQnPV8-116" edge="1">
          <mxGeometry width="50" height="50" relative="1" as="geometry">
            <mxPoint x="-1310" y="6660" as="sourcePoint" />
            <mxPoint x="-1230" y="6660" as="targetPoint" />
          </mxGeometry>
        </mxCell>
        <mxCell id="0UiTAvG5i1j57kaQnPV8-139" value="" style="endArrow=classic;html=1;rounded=0;" parent="1" source="0UiTAvG5i1j57kaQnPV8-116" target="0UiTAvG5i1j57kaQnPV8-117" edge="1">
          <mxGeometry width="50" height="50" relative="1" as="geometry">
            <mxPoint x="-1110" y="6660" as="sourcePoint" />
            <mxPoint x="-950" y="6660" as="targetPoint" />
          </mxGeometry>
        </mxCell>
        <mxCell id="0UiTAvG5i1j57kaQnPV8-141" value="Запрос на поиск данных пациента в реестре" style="rounded=1;whiteSpace=wrap;html=1;" parent="1" vertex="1">
          <mxGeometry x="-680" y="6720" width="120" height="60" as="geometry" />
        </mxCell>
        <mxCell id="0UiTAvG5i1j57kaQnPV8-142" value="" style="endArrow=classic;html=1;rounded=0;" parent="1" source="0UiTAvG5i1j57kaQnPV8-117" target="0UiTAvG5i1j57kaQnPV8-141" edge="1">
          <mxGeometry width="50" height="50" relative="1" as="geometry">
            <mxPoint x="-770" y="6689.3099999999995" as="sourcePoint" />
            <mxPoint x="-610" y="6689.3099999999995" as="targetPoint" />
          </mxGeometry>
        </mxCell>
        <mxCell id="0UiTAvG5i1j57kaQnPV8-143" value="Осуществляется поиск данных в реестре" style="rounded=1;whiteSpace=wrap;html=1;" parent="1" vertex="1">
          <mxGeometry x="-400" y="6720" width="120" height="60" as="geometry" />
        </mxCell>
        <mxCell id="0UiTAvG5i1j57kaQnPV8-144" value="" style="endArrow=classic;html=1;rounded=0;" parent="1" source="0UiTAvG5i1j57kaQnPV8-141" target="0UiTAvG5i1j57kaQnPV8-143" edge="1">
          <mxGeometry width="50" height="50" relative="1" as="geometry">
            <mxPoint x="-480" y="6750" as="sourcePoint" />
            <mxPoint x="-430" y="6700" as="targetPoint" />
          </mxGeometry>
        </mxCell>
        <mxCell id="0UiTAvG5i1j57kaQnPV8-147" value="" style="shape=rhombus;html=1;verticalLabelPosition=bottom;verticalAlignment=top;" parent="1" vertex="1">
          <mxGeometry x="-920" y="6870" width="40" height="40" as="geometry" />
        </mxCell>
        <mxCell id="0UiTAvG5i1j57kaQnPV8-148" value="" style="edgeStyle=elbowEdgeStyle;html=1;elbow=horizontal;align=right;verticalAlign=bottom;endArrow=none;rounded=0;labelBackgroundColor=none;startArrow=open;startSize=12;" parent="1" source="0UiTAvG5i1j57kaQnPV8-147" target="0UiTAvG5i1j57kaQnPV8-151" edge="1">
          <mxGeometry relative="1" as="geometry">
            <mxPoint x="-900" y="6845" as="targetPoint" />
            <Array as="points">
              <mxPoint x="-900" y="6880" />
            </Array>
          </mxGeometry>
        </mxCell>
        <mxCell id="0UiTAvG5i1j57kaQnPV8-149" value="[Данные были найдены]" style="edgeStyle=elbowEdgeStyle;html=1;elbow=vertical;verticalAlign=bottom;endArrow=open;rounded=0;labelBackgroundColor=none;endSize=12;" parent="1" source="0UiTAvG5i1j57kaQnPV8-147" target="0UiTAvG5i1j57kaQnPV8-154" edge="1">
          <mxGeometry x="0.0043" relative="1" as="geometry">
            <mxPoint x="-720" y="6890" as="targetPoint" />
            <Array as="points">
              <mxPoint x="-820" y="6890" />
            </Array>
            <mxPoint as="offset" />
          </mxGeometry>
        </mxCell>
        <mxCell id="0UiTAvG5i1j57kaQnPV8-150" value="[Данные не были найдены]&amp;nbsp; &amp;nbsp; &amp;nbsp;&amp;nbsp;" style="edgeStyle=elbowEdgeStyle;html=1;elbow=vertical;verticalAlign=bottom;endArrow=open;rounded=0;labelBackgroundColor=none;endSize=12;" parent="1" source="0UiTAvG5i1j57kaQnPV8-147" target="0UiTAvG5i1j57kaQnPV8-153" edge="1">
          <mxGeometry relative="1" as="geometry">
            <mxPoint x="-1080" y="6950" as="targetPoint" />
            <Array as="points">
              <mxPoint x="-980" y="6890" />
            </Array>
            <mxPoint as="offset" />
          </mxGeometry>
        </mxCell>
        <mxCell id="0UiTAvG5i1j57kaQnPV8-151" value="Получение ответа&lt;div&gt;от сервера&lt;/div&gt;" style="rounded=1;whiteSpace=wrap;html=1;" parent="1" vertex="1">
          <mxGeometry x="-680" y="6816" width="120" height="60" as="geometry" />
        </mxCell>
        <mxCell id="0UiTAvG5i1j57kaQnPV8-152" value="" style="endArrow=classic;html=1;rounded=0;edgeStyle=orthogonalEdgeStyle;" parent="1" source="0UiTAvG5i1j57kaQnPV8-143" target="0UiTAvG5i1j57kaQnPV8-151" edge="1">
          <mxGeometry width="50" height="50" relative="1" as="geometry">
            <mxPoint x="-540" y="6860" as="sourcePoint" />
            <mxPoint x="-380" y="6860" as="targetPoint" />
            <Array as="points">
              <mxPoint x="-340" y="6846" />
            </Array>
          </mxGeometry>
        </mxCell>
        <mxCell id="0UiTAvG5i1j57kaQnPV8-165" value="" style="edgeStyle=orthogonalEdgeStyle;rounded=0;orthogonalLoop=1;jettySize=auto;html=1;" parent="1" source="0UiTAvG5i1j57kaQnPV8-153" target="0UiTAvG5i1j57kaQnPV8-119" edge="1">
          <mxGeometry relative="1" as="geometry" />
        </mxCell>
        <mxCell id="0UiTAvG5i1j57kaQnPV8-153" value="Выдача регистрационной формы" style="rounded=1;whiteSpace=wrap;html=1;" parent="1" vertex="1">
          <mxGeometry x="-1040" y="6950" width="120" height="60" as="geometry" />
        </mxCell>
        <mxCell id="0UiTAvG5i1j57kaQnPV8-154" value="Поиск свободных слотов&amp;nbsp;&lt;span style=&quot;background-color: initial;&quot;&gt;в&lt;/span&gt;&lt;div&gt;&lt;span style=&quot;background-color: initial;&quot;&gt;расписании&lt;/span&gt;&lt;/div&gt;" style="rounded=1;whiteSpace=wrap;html=1;" parent="1" vertex="1">
          <mxGeometry x="-880" y="7240" width="120" height="60" as="geometry" />
        </mxCell>
        <mxCell id="0UiTAvG5i1j57kaQnPV8-155" value="Подписание согласия на обработку данных" style="rounded=1;whiteSpace=wrap;html=1;" parent="1" vertex="1">
          <mxGeometry x="-1240" y="7050" width="120" height="60" as="geometry" />
        </mxCell>
        <mxCell id="0UiTAvG5i1j57kaQnPV8-156" value="" style="endArrow=classic;html=1;rounded=0;" parent="1" source="0UiTAvG5i1j57kaQnPV8-153" target="0UiTAvG5i1j57kaQnPV8-119" edge="1">
          <mxGeometry width="50" height="50" relative="1" as="geometry">
            <mxPoint x="-1260" y="6870" as="sourcePoint" />
            <mxPoint x="-1100" y="6870" as="targetPoint" />
          </mxGeometry>
        </mxCell>
        <mxCell id="0UiTAvG5i1j57kaQnPV8-157" value="" style="endArrow=classic;html=1;rounded=0;" parent="1" source="0UiTAvG5i1j57kaQnPV8-119" target="0UiTAvG5i1j57kaQnPV8-155" edge="1">
          <mxGeometry width="50" height="50" relative="1" as="geometry">
            <mxPoint x="-1030" y="6990" as="sourcePoint" />
            <mxPoint x="-1110" y="6990" as="targetPoint" />
          </mxGeometry>
        </mxCell>
        <mxCell id="0UiTAvG5i1j57kaQnPV8-158" value="" style="shape=rhombus;html=1;verticalLabelPosition=bottom;verticalAlignment=top;" parent="1" vertex="1">
          <mxGeometry x="-1200" y="7150" width="40" height="40" as="geometry" />
        </mxCell>
        <mxCell id="0UiTAvG5i1j57kaQnPV8-159" value="" style="edgeStyle=elbowEdgeStyle;html=1;elbow=horizontal;align=right;verticalAlign=bottom;endArrow=none;rounded=0;labelBackgroundColor=none;startArrow=open;startSize=12;" parent="1" source="0UiTAvG5i1j57kaQnPV8-158" edge="1">
          <mxGeometry relative="1" as="geometry">
            <mxPoint x="-1180" y="7110" as="targetPoint" />
          </mxGeometry>
        </mxCell>
        <mxCell id="0UiTAvG5i1j57kaQnPV8-160" value="[Полностью&lt;div&gt;заполненная&lt;/div&gt;&lt;div&gt;&lt;span style=&quot;background-color: initial;&quot;&gt;форма]&lt;/span&gt;&lt;/div&gt;" style="edgeStyle=elbowEdgeStyle;html=1;elbow=vertical;verticalAlign=bottom;endArrow=open;rounded=0;labelBackgroundColor=none;endSize=12;" parent="1" source="0UiTAvG5i1j57kaQnPV8-158" target="0UiTAvG5i1j57kaQnPV8-130" edge="1">
          <mxGeometry relative="1" as="geometry">
            <mxPoint x="-1080" y="7170" as="targetPoint" />
            <mxPoint as="offset" />
          </mxGeometry>
        </mxCell>
        <mxCell id="0UiTAvG5i1j57kaQnPV8-161" value="[Отказ в подписании&lt;div&gt;согласия]&lt;/div&gt;" style="edgeStyle=elbowEdgeStyle;html=1;elbow=vertical;verticalAlign=bottom;endArrow=open;rounded=0;labelBackgroundColor=none;endSize=12;" parent="1" source="0UiTAvG5i1j57kaQnPV8-158" target="0UiTAvG5i1j57kaQnPV8-162" edge="1">
          <mxGeometry relative="1" as="geometry">
            <mxPoint x="-1280" y="7170" as="targetPoint" />
            <mxPoint as="offset" />
          </mxGeometry>
        </mxCell>
        <mxCell id="0UiTAvG5i1j57kaQnPV8-162" value="" style="html=1;shape=mxgraph.sysml.actFinal;strokeWidth=2;verticalLabelPosition=bottom;verticalAlignment=top;" parent="1" vertex="1">
          <mxGeometry x="-1360" y="7150" width="40" height="40" as="geometry" />
        </mxCell>
        <mxCell id="0UiTAvG5i1j57kaQnPV8-163" value="Проверка данных" style="rounded=1;whiteSpace=wrap;html=1;" parent="1" vertex="1">
          <mxGeometry x="-400" y="7140" width="120" height="60" as="geometry" />
        </mxCell>
        <mxCell id="0UiTAvG5i1j57kaQnPV8-164" value="Запрос на внесение данных пациента в реестр" style="rounded=1;whiteSpace=wrap;html=1;" parent="1" vertex="1">
          <mxGeometry x="-680" y="7140" width="120" height="60" as="geometry" />
        </mxCell>
        <mxCell id="0UiTAvG5i1j57kaQnPV8-168" value="Осуществляется размещение данных в реестре" style="rounded=1;whiteSpace=wrap;html=1;" parent="1" vertex="1">
          <mxGeometry x="-400" y="7240" width="120" height="60" as="geometry" />
        </mxCell>
        <mxCell id="0UiTAvG5i1j57kaQnPV8-170" value="" style="endArrow=classic;html=1;rounded=0;" parent="1" source="0UiTAvG5i1j57kaQnPV8-130" target="0UiTAvG5i1j57kaQnPV8-164" edge="1">
          <mxGeometry width="50" height="50" relative="1" as="geometry">
            <mxPoint x="-890" y="7230" as="sourcePoint" />
            <mxPoint x="-730" y="7230" as="targetPoint" />
          </mxGeometry>
        </mxCell>
        <mxCell id="0UiTAvG5i1j57kaQnPV8-171" value="" style="endArrow=classic;html=1;rounded=0;" parent="1" source="0UiTAvG5i1j57kaQnPV8-164" target="0UiTAvG5i1j57kaQnPV8-163" edge="1">
          <mxGeometry width="50" height="50" relative="1" as="geometry">
            <mxPoint x="-670" y="7280" as="sourcePoint" />
            <mxPoint x="-430" y="7280" as="targetPoint" />
          </mxGeometry>
        </mxCell>
        <mxCell id="0UiTAvG5i1j57kaQnPV8-172" value="" style="endArrow=classic;html=1;rounded=0;" parent="1" source="0UiTAvG5i1j57kaQnPV8-163" target="0UiTAvG5i1j57kaQnPV8-168" edge="1">
          <mxGeometry width="50" height="50" relative="1" as="geometry">
            <mxPoint x="-320" y="7210" as="sourcePoint" />
            <mxPoint x="-160" y="7210" as="targetPoint" />
          </mxGeometry>
        </mxCell>
        <mxCell id="0UiTAvG5i1j57kaQnPV8-173" value="Получение ответа&lt;div&gt;от сервера&lt;/div&gt;" style="rounded=1;whiteSpace=wrap;html=1;" parent="1" vertex="1">
          <mxGeometry x="-680" y="7240" width="120" height="60" as="geometry" />
        </mxCell>
        <mxCell id="0UiTAvG5i1j57kaQnPV8-174" value="" style="endArrow=classic;html=1;rounded=0;" parent="1" source="0UiTAvG5i1j57kaQnPV8-168" target="0UiTAvG5i1j57kaQnPV8-173" edge="1">
          <mxGeometry width="50" height="50" relative="1" as="geometry">
            <mxPoint x="-470" y="7210" as="sourcePoint" />
            <mxPoint x="-470" y="7250" as="targetPoint" />
            <Array as="points">
              <mxPoint x="-490" y="7270" />
            </Array>
          </mxGeometry>
        </mxCell>
        <mxCell id="0UiTAvG5i1j57kaQnPV8-175" value="" style="endArrow=classic;html=1;rounded=0;" parent="1" source="0UiTAvG5i1j57kaQnPV8-173" target="0UiTAvG5i1j57kaQnPV8-154" edge="1">
          <mxGeometry width="50" height="50" relative="1" as="geometry">
            <mxPoint x="-610" y="7340" as="sourcePoint" />
            <mxPoint x="-770" y="7340" as="targetPoint" />
            <Array as="points">
              <mxPoint x="-720" y="7270" />
            </Array>
          </mxGeometry>
        </mxCell>
        <mxCell id="0UiTAvG5i1j57kaQnPV8-176" value="" style="endArrow=classic;html=1;rounded=0;" parent="1" source="0UiTAvG5i1j57kaQnPV8-154" target="0UiTAvG5i1j57kaQnPV8-122" edge="1">
          <mxGeometry width="50" height="50" relative="1" as="geometry">
            <mxPoint x="-920" y="7270" as="sourcePoint" />
            <mxPoint x="-1070" y="7270" as="targetPoint" />
          </mxGeometry>
        </mxCell>
        <mxCell id="0UiTAvG5i1j57kaQnPV8-177" value="" style="shape=rhombus;html=1;verticalLabelPosition=bottom;verticalAlignment=top;" parent="1" vertex="1">
          <mxGeometry x="-1200" y="7350" width="40" height="40" as="geometry" />
        </mxCell>
        <mxCell id="0UiTAvG5i1j57kaQnPV8-178" value="" style="edgeStyle=elbowEdgeStyle;html=1;elbow=horizontal;align=right;verticalAlign=bottom;endArrow=none;rounded=0;labelBackgroundColor=none;startArrow=open;startSize=12;" parent="1" source="0UiTAvG5i1j57kaQnPV8-177" target="0UiTAvG5i1j57kaQnPV8-122" edge="1">
          <mxGeometry relative="1" as="geometry">
            <mxPoint x="-1180" y="7310" as="targetPoint" />
          </mxGeometry>
        </mxCell>
        <mxCell id="0UiTAvG5i1j57kaQnPV8-179" value="[Удалость сделать выбор]" style="edgeStyle=elbowEdgeStyle;html=1;elbow=vertical;verticalAlign=bottom;endArrow=open;rounded=0;labelBackgroundColor=none;endSize=12;" parent="1" source="0UiTAvG5i1j57kaQnPV8-177" target="0UiTAvG5i1j57kaQnPV8-127" edge="1">
          <mxGeometry relative="1" as="geometry">
            <mxPoint x="-1080" y="7370" as="targetPoint" />
          </mxGeometry>
        </mxCell>
        <mxCell id="0UiTAvG5i1j57kaQnPV8-180" value="[Не удалось&lt;div&gt;удовлетворить&lt;/div&gt;&lt;div&gt;&lt;span style=&quot;background-color: initial;&quot;&gt;требования]&lt;/span&gt;&lt;/div&gt;" style="edgeStyle=elbowEdgeStyle;html=1;elbow=vertical;verticalAlign=bottom;endArrow=open;rounded=0;labelBackgroundColor=none;endSize=12;" parent="1" source="0UiTAvG5i1j57kaQnPV8-177" target="0UiTAvG5i1j57kaQnPV8-181" edge="1">
          <mxGeometry relative="1" as="geometry">
            <mxPoint x="-1280" y="7370" as="targetPoint" />
          </mxGeometry>
        </mxCell>
        <mxCell id="0UiTAvG5i1j57kaQnPV8-181" value="" style="html=1;shape=mxgraph.sysml.actFinal;strokeWidth=2;verticalLabelPosition=bottom;verticalAlignment=top;" parent="1" vertex="1">
          <mxGeometry x="-1360" y="7350" width="40" height="40" as="geometry" />
        </mxCell>
        <mxCell id="0UiTAvG5i1j57kaQnPV8-182" value="Запрос на внесение изменений в расписание" style="rounded=1;whiteSpace=wrap;html=1;" parent="1" vertex="1">
          <mxGeometry x="-680" y="7340" width="120" height="60" as="geometry" />
        </mxCell>
        <mxCell id="0UiTAvG5i1j57kaQnPV8-184" value="" style="endArrow=classic;html=1;rounded=0;" parent="1" source="0UiTAvG5i1j57kaQnPV8-127" target="0UiTAvG5i1j57kaQnPV8-182" edge="1">
          <mxGeometry width="50" height="50" relative="1" as="geometry">
            <mxPoint x="-710" y="7419.29" as="sourcePoint" />
            <mxPoint x="-870" y="7419.29" as="targetPoint" />
          </mxGeometry>
        </mxCell>
        <mxCell id="0UiTAvG5i1j57kaQnPV8-185" value="Осуществляется запись пациента и изменение расписания" style="rounded=1;whiteSpace=wrap;html=1;" parent="1" vertex="1">
          <mxGeometry x="-400" y="7340" width="120" height="60" as="geometry" />
        </mxCell>
        <mxCell id="0UiTAvG5i1j57kaQnPV8-186" value="Печать талона с информацией о записи" style="rounded=1;whiteSpace=wrap;html=1;" parent="1" vertex="1">
          <mxGeometry x="-960" y="7440" width="120" height="60" as="geometry" />
        </mxCell>
        <mxCell id="0UiTAvG5i1j57kaQnPV8-188" value="" style="endArrow=classic;html=1;rounded=0;" parent="1" source="0UiTAvG5i1j57kaQnPV8-182" target="0UiTAvG5i1j57kaQnPV8-185" edge="1">
          <mxGeometry width="50" height="50" relative="1" as="geometry">
            <mxPoint x="-550" y="7410" as="sourcePoint" />
            <mxPoint x="-390" y="7410" as="targetPoint" />
          </mxGeometry>
        </mxCell>
        <mxCell id="0UiTAvG5i1j57kaQnPV8-189" value="" style="endArrow=classic;html=1;rounded=0;" parent="1" source="0UiTAvG5i1j57kaQnPV8-185" target="0UiTAvG5i1j57kaQnPV8-128" edge="1">
          <mxGeometry width="50" height="50" relative="1" as="geometry">
            <mxPoint x="-560" y="7440" as="sourcePoint" />
            <mxPoint x="-400" y="7440" as="targetPoint" />
          </mxGeometry>
        </mxCell>
        <mxCell id="0UiTAvG5i1j57kaQnPV8-190" value="" style="endArrow=classic;html=1;rounded=0;" parent="1" source="0UiTAvG5i1j57kaQnPV8-128" target="0UiTAvG5i1j57kaQnPV8-129" edge="1">
          <mxGeometry width="50" height="50" relative="1" as="geometry">
            <mxPoint x="-550" y="7380" as="sourcePoint" />
            <mxPoint x="-390" y="7380" as="targetPoint" />
          </mxGeometry>
        </mxCell>
        <mxCell id="0UiTAvG5i1j57kaQnPV8-191" value="" style="endArrow=classic;html=1;rounded=0;" parent="1" source="0UiTAvG5i1j57kaQnPV8-129" target="0UiTAvG5i1j57kaQnPV8-186" edge="1">
          <mxGeometry width="50" height="50" relative="1" as="geometry">
            <mxPoint x="-660" y="7510" as="sourcePoint" />
            <mxPoint x="-820" y="7510" as="targetPoint" />
          </mxGeometry>
        </mxCell>
        <mxCell id="0UiTAvG5i1j57kaQnPV8-192" value="" style="endArrow=classic;html=1;rounded=0;" parent="1" source="0UiTAvG5i1j57kaQnPV8-186" target="0UiTAvG5i1j57kaQnPV8-193" edge="1">
          <mxGeometry width="50" height="50" relative="1" as="geometry">
            <mxPoint x="-1010" y="7469.71" as="sourcePoint" />
            <mxPoint x="-1170" y="7469.71" as="targetPoint" />
          </mxGeometry>
        </mxCell>
        <mxCell id="0UiTAvG5i1j57kaQnPV8-193" value="" style="html=1;shape=mxgraph.sysml.actFinal;strokeWidth=2;verticalLabelPosition=bottom;verticalAlignment=top;" parent="1" vertex="1">
          <mxGeometry x="-1360" y="7450" width="40" height="40" as="geometry" />
        </mxCell>
        <mxCell id="0UiTAvG5i1j57kaQnPV8-195" value="&lt;h1 style=&quot;margin-top: 0px;&quot;&gt;Диаграмма&lt;/h1&gt;&lt;h1 style=&quot;margin-top: 0px;&quot;&gt;деятельности (система записи и регистрации пациента в АРМ администратора)&lt;/h1&gt;" style="text;html=1;whiteSpace=wrap;overflow=hidden;rounded=0;" parent="1" vertex="1">
          <mxGeometry x="-1470" y="6420" width="1040" height="90" as="geometry" />
        </mxCell>
        <mxCell id="d4aEejsGLKM90fkfGaft-4" style="edgeStyle=orthogonalEdgeStyle;rounded=0;orthogonalLoop=1;jettySize=auto;html=1;exitX=0.5;exitY=1;exitDx=0;exitDy=0;exitPerimeter=0;entryX=0;entryY=0;entryDx=70;entryDy=0;entryPerimeter=0;" parent="1" source="0UiTAvG5i1j57kaQnPV8-46" target="0UiTAvG5i1j57kaQnPV8-60" edge="1">
          <mxGeometry relative="1" as="geometry" />
        </mxCell>
        <mxCell id="d4aEejsGLKM90fkfGaft-5" style="edgeStyle=orthogonalEdgeStyle;rounded=0;orthogonalLoop=1;jettySize=auto;html=1;exitX=0.5;exitY=1;exitDx=0;exitDy=0;exitPerimeter=0;entryX=0;entryY=0;entryDx=75;entryDy=0;entryPerimeter=0;" parent="1" source="0UiTAvG5i1j57kaQnPV8-24" target="0UiTAvG5i1j57kaQnPV8-46" edge="1">
          <mxGeometry relative="1" as="geometry" />
        </mxCell>
      </root>
    </mxGraphModel>
  </diagram>
</mxfile>
